<svg viewBox="0 0 64 64" xmlns="http://www.w3.org/2000/svg" fill-rule="evenodd" clip-rule="evenodd" stroke-linecap="round" stroke-linejoin="round" stroke-miterlimit="1.5"><path fill="none" d="M0 0h64v64H0z"/><clipPath id="a"><path d="M0 0h64v64H0z"/></clipPath><g fill="none" stroke="#000" stroke-width="2" clip-path="url(#a)"><path d="M35.94 46.069v3.582c0 1.417.985 2.642 2.365 2.939 2.265.488 5.704 1.228 8.25 1.777 2.017.434 3.601 2.064 3.881 4.117.819 6.021-37.872 6.021-36.971 0 .307-2.049 1.864-3.683 3.881-4.117 2.546-.549 5.985-1.289 8.25-1.777 1.38-.297 2.365-1.522 2.365-2.939v-3.582"/><path d="M42.921 28.533s-3.891 1.654-8.248-.637c-4.622-2.429-5.712-6.377-5.712-6.377s-.44 2.015-3.227 4.674c-1.892 1.804-4.754 1.338-4.754 1.338V35.6c0 2.909 1.156 5.7 3.213 7.757 2.058 2.057 4.848 3.213 7.757 3.213h.001c2.909 0 5.699-1.156 7.757-3.213 2.057-2.057 3.213-4.848 3.213-7.757v-7.067zm-15.957 3.508v2.004m9.973-2.004v2.004M22.975 53.293c1.393 1.954 4.006 3.798 8.903 3.798 4.862 0 7.472-1.818 8.873-3.756"/><path d="M36.355 49.075s5.791-.55 8.794-.835c1.005-.095 1.782-.926 1.81-1.936.094-3.387.307-11.099.507-18.355.116-4.189-1.467-8.247-4.389-11.251C40.155 13.695 36.143 12 31.952 12h-.003c-4.191 0-8.203 1.695-11.125 4.698-2.922 3.004-4.505 7.062-4.389 11.251.2 7.255.414 14.967.507 18.354.028 1.011.805 1.841 1.811 1.936 3.019.285 8.855.836 8.855.836m1.351-8.016c1.451.606 4.779.625 5.983 0M22.102 6.121C19.568 5.578 18 4.828 18 4c0-1.656 6.273-3 14-3s14 1.344 14 3-6.273 3-14 3c-1.811 0-3.542-.074-5.131-.208M48 34c3.605-1.86 9.888-6.999 14-11 3.197 8.9-4.284 18.186-7 21l7-3c1.181 5.979-5.283 11.997-11 16M15.781 34c-3.606-1.86-9.888-6.999-14-11-3.197 8.9 4.284 18.186 7 21l-7-3c-1.182 5.979 5.283 11.997 11 16"/></g></svg>