<svg viewBox="0 0 64 64" xmlns="http://www.w3.org/2000/svg" fill-rule="evenodd" clip-rule="evenodd" stroke-linecap="round" stroke-linejoin="round" stroke-miterlimit="1.5"><path fill="none" d="M0 0h64v64H0z"/><g fill="none" stroke="#000" stroke-width="2"><path d="M32 16c13.798 0 25 16.131 25 36 0 1.904 7.147 4.356 5.5 9-1.285 3.624-6.52 1-6.52 1C39.655 63.179 23.329 63.205 7 62c0 0-4.632 2.097-5.643-1C.25 57.605 7 53.54 7 52c0-19.869 11.202-36 25-36zM20 40h9.018m6 0H44"/><path d="M40 36.973L39 40l1 3.027m3-5.045L42 40l1 2.018m-19-5.045L25 40l-1 3.027m-3-5.045L22 40l-1 2.018m5 8.468l4.275-7.471m3.433-6L38 29.514m-4.598 1.981l2.098 2.388 3.098.64m-2.83-5.145L37 31.261l2.232.136m-13.83 14.08l3.098.64 2.098 2.388m-5.83.098l2.232.136 1.232 1.883M38 50.486l-4.275-7.471m-3.433-6L26 29.514m4.598 1.981L28.5 33.883l-3.098.64m2.83-5.145L27 31.261l-2.232.136m13.83 14.08l-3.098.64-2.098 2.388m5.83.098L37 48.739l-1.232 1.883"/><ellipse cx="32" cy="40" rx="3" ry="3.027"/><path d="M37 16l6-12c-1.525-.873-4.754-.018-6-1C33.506.244 30.47.475 27 3c-1.413 1.028-4.345-.017-6 1l6 12m4 0l-2-7m4 7l2-7M7 52c2.024 2.356 5.422 4.527 12 5m38-5c-2.024 2.356-5.422 4.527-12 5"/></g></svg>