<svg viewBox="0 0 64 64" xmlns="http://www.w3.org/2000/svg" fill-rule="evenodd" clip-rule="evenodd" stroke-linecap="round" stroke-linejoin="round" stroke-miterlimit="1.5"><path fill="none" d="M0 0h64v64H0z"/><clipPath id="a"><path d="M0 0h64v64H0z"/></clipPath><g clip-path="url(#a)"><path d="M38 16.976v-4c0-1.105-.895-2-2-2h-9c-.53 0-1.039.21-1.414.585S25 12.445 25 12.976v3" fill="none" stroke="#000" stroke-width="2"/><path d="M19.792 19.103c3.448-1.989 7.446-3.127 11.708-3.127C44.47 15.976 55 26.517 55 39.5S44.47 63.024 31.5 63.024 8 52.483 8 39.5c0-6.897 2.972-13.106 7.703-17.41M10 29.976h43m-42 19h42m-25.626-41.1C27.133 7.29 27 6.648 27 5.976c0-2.76 2.24-5 5-5s5 2.24 5 5c0 2.759-2.24 5-5 5" fill="none" stroke="#000" stroke-width="2"/><path d="M18.071 33.976l.071.001.07.003.071.003.07.004.07.005.07.005.069.007.069.007.069.009.069.009.068.01.068.011.068.012.068.012.067.013.067.015.066.015.067.015.066.017.066.017.065.018.065.019.065.02.064.021.064.021.064.022.063.023.063.023.063.024.062.025.062.026.061.027.062.027.06.028.061.028.059.03.06.03.059.03.059.032.058.032.058.033.057.033.057.034.057.035.056.036.055.036.055.036.055.038.054.038.054.039.053.039.053.04.052.04.051.041.052.042.05.043.051.042.049.044.049.044.049.045.048.045.047.046.047.046.047.047.046.048.045.048.044.048.045.049.043.05.043.05.042.051.042.051.041.052.041.052.04.053.039.053.039.054.038.054.037.054.037.055.036.056.035.056.035.057.034.056.034.058.033.058.032.058.031.059.031.059.03.059.029.06.029.06.028.061.027.061.026.062.026.061.025.063.025.062.023.063.023.064.022.063.021.064.021.065.019.065.019.065.018.065.018.066.016.066.016.066.015.067.014.067.014.067.012.068.012.067.011.068.01.069.009.068.008.069.008.07.006.069.006.07.005.07.004.07.003.07.002.071.002.071v.142l-.002.07-.002.071-.003.07-.004.071-.005.069-.006.07-.006.07-.008.069-.008.069-.009.068-.01.069-.011.068-.012.068-.012.067-.014.067-.014.067-.015.067-.016.066-.016.066-.018.066-.018.066-.019.065-.019.064-.021.065-.021.064-.022.064-.023.063-.023.063-.025.062-.025.063-.026.062-.026.061-.027.061-.028.061-.029.06-.029.06-.03.06-.031.059-.031.058-.032.059-.033.057-.034.058-.034.057-.035.056-.035.056-.036.056-.037.055-.037.054-.038.055-.039.053-.039.053-.04.053-.041.052-.041.052-.042.051-.042.051-.043.05-.043.05-.045.049-.044.048-.045.048-.046.048-.047.047-.047.046-.047.046-.048.045-.049.045-.049.044-.049.044-.051.043-.05.042-.052.042-.051.041-.052.04-.053.04-.053.04-.054.038-.054.038-.055.038-.055.036-.055.037-.056.035-.057.035-.057.034-.057.033-.058.033-.058.032-.059.032-.059.031-.06.03-.059.029-.061.029-.06.027-.062.028-.061.026-.062.026-.062.025-.063.024-.063.024-.063.022-.064.022-.064.022-.064.02-.065.02-.065.019-.065.018-.066.017-.066.017-.067.016-.066.015-.067.014-.067.013-.068.013-.068.011-.068.011-.068.01-.069.009-.069.009-.069.007-.069.007-.07.006-.07.004-.07.004-.071.004-.07.002-.071.001-.071.001-.071-.001-.071-.001-.07-.002-.071-.004-.07-.004-.07-.004-.07-.006-.069-.007-.069-.007-.069-.009-.069-.009-.068-.01-.068-.011-.068-.011-.068-.013-.067-.013-.067-.014-.066-.015-.067-.016-.066-.017-.066-.017-.065-.018-.065-.019-.065-.02-.064-.02-.064-.022-.064-.022-.063-.022-.063-.024-.063-.024-.062-.025-.062-.026-.061-.026-.062-.028-.06-.027-.061-.029-.059-.029-.06-.03-.059-.031-.059-.032-.058-.032-.058-.033-.057-.033-.057-.034-.057-.035-.056-.035-.055-.037-.055-.036-.055-.038-.054-.038-.054-.038-.053-.04-.053-.04-.052-.04-.051-.041-.052-.042-.05-.042-.051-.043-.049-.044-.049-.044-.049-.045-.048-.045-.047-.046-.047-.046-.047-.047-.046-.048-.045-.048-.044-.048-.045-.049-.043-.05-.043-.05-.042-.051-.042-.051-.041-.052-.041-.052-.04-.053-.039-.053-.039-.053-.038-.055-.037-.054-.037-.055-.036-.056-.035-.056-.035-.056-.034-.057-.034-.058-.033-.057-.032-.059-.031-.058-.031-.059-.03-.06-.029-.06-.029-.06-.028-.061-.027-.061-.026-.061-.026-.062-.025-.063-.025-.062-.023-.063-.023-.063-.022-.064-.021-.064-.021-.065-.019-.064-.019-.065-.018-.066-.018-.066-.016-.066-.016-.066-.015-.067-.014-.067-.014-.067-.012-.067-.012-.068-.011-.068-.01-.069-.009-.068-.008-.069-.008-.069-.006-.07-.006-.07-.005-.069-.004-.071-.003-.07-.002-.071-.002-.07v-.142l.002-.071.002-.071.003-.07.004-.07.005-.07.006-.07.006-.069.008-.07.008-.069.009-.068.01-.069.011-.068.012-.067.012-.068.014-.067.014-.067.015-.067.016-.066.016-.066.018-.066.018-.065.019-.065.019-.065.021-.065.021-.064.022-.063.023-.064.023-.063.025-.062.025-.063.026-.061.026-.062.027-.061.028-.061.029-.06.029-.06.03-.059.031-.059.031-.059.032-.058.033-.058.034-.058.034-.056.035-.057.035-.056.036-.056.037-.055.037-.054.038-.054.039-.054.039-.053.04-.053.041-.052.041-.052.042-.051.042-.051.043-.05.043-.05.045-.049.044-.048.045-.048.046-.048.047-.047.047-.046.047-.046.048-.045.049-.045.049-.044.049-.044.051-.042.05-.043.052-.042.051-.041.052-.04.053-.04.053-.039.054-.039.054-.038.055-.038.055-.036.055-.036.056-.036.057-.035.057-.034.057-.033.058-.033.058-.032.059-.032.059-.03.06-.03.059-.03.061-.028.06-.028.062-.027.061-.027.062-.026.062-.025.063-.024.063-.023.063-.023.064-.022.064-.021.064-.021.065-.02.065-.019.065-.018.066-.017.066-.017.067-.015.066-.015.067-.015.067-.013.068-.012.068-.012.068-.011.068-.01.069-.009.069-.009.069-.007.069-.007.07-.005.07-.005.07-.004.071-.003.07-.003.071-.001h.142zm-.117 2l-.045.001-.045.001-.045.002-.045.003-.045.003-.044.004-.045.004-.044.005-.044.005-.043.006-.044.006-.043.007-.043.007-.043.008-.042.009-.043.009-.042.009-.042.01-.042.011-.042.011-.041.011-.041.012-.041.013-.041.013-.041.013-.04.014-.04.014-.04.015-.04.016-.039.016-.039.016-.039.017-.039.017-.039.018-.038.018-.038.018-.038.02-.037.019-.038.02-.037.02-.036.021-.037.022-.036.021-.036.023-.036.022-.035.023-.035.024-.035.023-.035.025-.034.024-.034.025-.033.026-.034.026-.033.026-.032.027-.033.027-.032.027-.032.028-.031.028-.031.029-.031.029-.03.029-.03.03-.03.029-.029.031-.029.031-.028.031-.029.031-.027.032-.028.032-.027.032-.027.033-.026.033-.026.033-.025.034-.025.034-.025.034-.024.034-.024.035-.023.035-.023.036-.023.035-.022.036-.022.037-.021.036-.021.037-.021.037-.019.037-.02.038-.019.038-.019.038-.018.038-.018.038-.017.039-.017.039-.016.039-.016.04-.015.04-.015.039-.015.041-.013.04-.014.041-.013.04-.012.041-.012.042-.012.041-.011.042-.01.041-.01.042-.01.043-.009.042-.008.043-.008.043-.008.043-.007.043-.006.043-.006.044-.005.044-.005.044-.004.044-.004.045-.003.044-.002.045-.002.045-.002.045-.001.046v.091l.001.046.002.045.002.045.002.045.003.045.004.044.004.044.005.044.005.044.006.044.006.043.007.044.008.043.008.042.008.043.009.043.01.042.01.042.01.042.011.041.012.042.012.041.012.041.013.041.014.04.013.041.015.04.015.04.015.039.016.04.016.039.017.039.017.039.018.038.018.039.019.038.019.037.02.038.019.037.021.037.021.037.021.037.022.036.022.036.023.035.023.036.023.035.024.035.024.034.025.034.025.034.025.034.026.033.026.033.027.033.027.032.028.033.027.031.029.032.028.031.029.03.029.031.03.03.03.029.03.03.031.029.031.028.031.028.032.028.032.027.033.028.032.026.033.026.034.026.033.026.034.025.034.025.035.024.035.024.035.023.035.023.036.023.036.022.036.022.037.021.036.021.037.02.038.02.037.02.038.019.038.018.038.018.039.018.039.017.039.017.039.017.039.015.04.016.04.015.04.014.04.014.041.014.041.013.041.012.041.012.041.011.042.011.042.011.042.01.042.009.043.009.042.009.043.008.043.007.043.007.044.006.043.006.044.006.044.004.045.005.044.003.045.003.044.003.046.002.045.001.045.001.046.001.046-.001.045-.001.045-.001.046-.002.044-.003.045-.003.044-.003.045-.005.044-.004.044-.006.043-.006.044-.006.043-.007.043-.007.043-.008.042-.009.043-.009.042-.009.042-.01.042-.011.042-.011.041-.011.041-.012.041-.012.041-.013.041-.014.04-.014.04-.014.04-.015.04-.016.039-.015.039-.017.039-.017.039-.017.039-.018.038-.018.038-.018.038-.019.037-.02.038-.02.037-.02.036-.021.037-.021.036-.022.036-.022.036-.023.035-.023.035-.023.035-.024.035-.024.034-.025.034-.025.033-.026.034-.026.033-.026.032-.026.033-.028.032-.027.032-.028.031-.028.031-.028.031-.029.03-.03.03-.029.03-.03.029-.031.029-.03.028-.031.029-.032.027-.032.028-.032.027-.032.027-.033.026-.033.026-.033.025-.034.025-.034.025-.034.024-.034.024-.035.023-.035.023-.036.023-.035.022-.036.022-.036.021-.037.021-.037.021-.037.019-.037.02-.038.019-.037.019-.038.018-.039.018-.038.017-.039.017-.039.016-.039.016-.04.015-.039.015-.04.015-.04.013-.041.014-.04.013-.041.012-.041.012-.041.012-.042.011-.041.01-.042.01-.042.01-.042.009-.043.008-.043.008-.042.008-.043.007-.044.006-.043.006-.044.005-.044.005-.044.004-.044.004-.044.003-.045.002-.045.002-.045.002-.045.001-.046v-.091l-.001-.046-.002-.045-.002-.045-.002-.045-.003-.044-.004-.045-.004-.044-.005-.044-.005-.044-.006-.044-.006-.043-.007-.043-.008-.043-.008-.043-.008-.043-.009-.042-.01-.043-.01-.042-.01-.041-.011-.042-.012-.042-.012-.041-.012-.041-.013-.04-.014-.041-.013-.04-.015-.041-.015-.039-.015-.04-.016-.04-.016-.039-.017-.039-.017-.039-.018-.038-.018-.038-.019-.038-.019-.038-.02-.038-.019-.037-.021-.037-.021-.037-.021-.036-.022-.037-.022-.036-.023-.035-.023-.036-.023-.035-.024-.035-.024-.034-.025-.034-.025-.034-.025-.034-.026-.033-.026-.033-.027-.033-.027-.032-.028-.032-.027-.032-.029-.031-.028-.031-.029-.031-.029-.031-.03-.029-.03-.03-.03-.029-.031-.029-.031-.029-.031-.028-.032-.028-.032-.027-.033-.027-.032-.027-.033-.026-.034-.026-.033-.026-.034-.025-.034-.024-.035-.025-.035-.023-.035-.024-.035-.023-.036-.022-.036-.023-.036-.021-.037-.022-.036-.021-.037-.02-.038-.02-.037-.019-.038-.02-.038-.018-.038-.018-.039-.018-.039-.017-.039-.017-.039-.016-.039-.016-.04-.016-.04-.015-.04-.014-.04-.014-.041-.013-.041-.013-.041-.013-.041-.012-.041-.011-.042-.011-.042-.011-.042-.01-.042-.009-.043-.009-.042-.009-.043-.008-.043-.007-.043-.007-.044-.006-.043-.006-.044-.005-.044-.005-.045-.004-.044-.004-.045-.003-.045-.003-.045-.002-.045-.001-.045-.001h-.092zm14.117-2l.071.001.07.003.071.003.07.004.07.005.07.005.069.007.069.007.069.009.069.009.068.01.068.011.068.012.068.012.067.013.067.015.066.015.067.015.066.017.066.017.065.018.065.019.065.02.064.021.064.021.064.022.063.023.063.023.063.024.062.025.062.026.061.027.062.027.06.028.061.028.059.03.06.03.059.03.059.032.058.032.058.033.057.033.057.034.057.035.056.036.055.036.055.036.055.038.054.038.054.039.053.039.053.04.052.04.051.041.052.042.05.043.051.042.049.044.049.044.049.045.048.045.047.046.047.046.047.047.046.048.045.048.044.048.045.049.043.05.043.05.042.051.042.051.041.052.041.052.04.053.039.053.039.054.038.054.037.054.037.055.036.056.035.056.035.057.034.056.034.058.033.058.032.058.031.059.031.059.03.059.029.06.029.06.028.061.027.061.026.062.026.061.025.063.025.062.023.063.023.064.022.063.021.064.021.065.019.065.019.065.018.065.018.066.016.066.016.066.015.067.014.067.014.067.012.068.012.067.011.068.01.069.009.068.008.069.008.07.006.069.006.07.005.07.004.07.003.07.002.071.002.071v.142l-.002.07-.002.071-.003.07-.004.071-.005.069-.006.07-.006.07-.008.069-.008.069-.009.068-.01.069-.011.068-.012.068-.012.067-.014.067-.014.067-.015.067-.016.066-.016.066-.018.066-.018.066-.019.065-.019.064-.021.065-.021.064-.022.064-.023.063-.023.063-.025.062-.025.063-.026.062-.026.061-.027.061-.028.061-.029.06-.029.06-.03.06-.031.059-.031.058-.032.059-.033.057-.034.058-.034.057-.035.056-.035.056-.036.056-.037.055-.037.054-.038.055-.039.053-.039.053-.04.053-.041.052-.041.052-.042.051-.042.051-.043.05-.043.05-.045.049-.044.048-.045.048-.046.048-.047.047-.047.046-.047.046-.048.045-.049.045-.049.044-.049.044-.051.043-.05.042-.052.042-.051.041-.052.04-.053.04-.053.04-.054.038-.054.038-.055.038-.055.036-.055.037-.056.035-.057.035-.057.034-.057.033-.058.033-.058.032-.059.032-.059.031-.06.03-.059.029-.061.029-.06.027-.062.028-.061.026-.062.026-.062.025-.063.024-.063.024-.063.022-.064.022-.064.022-.064.02-.065.02-.065.019-.065.018-.066.017-.066.017-.067.016-.066.015-.067.014-.067.013-.068.013-.068.011-.068.011-.068.01-.069.009-.069.009-.069.007-.069.007-.07.006-.07.004-.07.004-.071.004-.07.002-.071.001-.071.001-.071-.001-.071-.001-.07-.002-.071-.004-.07-.004-.07-.004-.07-.006-.069-.007-.069-.007-.069-.009-.069-.009-.068-.01-.068-.011-.068-.011-.068-.013-.067-.013-.067-.014-.066-.015-.067-.016-.066-.017-.066-.017-.065-.018-.065-.019-.065-.02-.064-.02-.064-.022-.064-.022-.063-.022-.063-.024-.063-.024-.062-.025-.062-.026-.061-.026-.062-.028-.06-.027-.061-.029-.059-.029-.06-.03-.059-.031-.059-.032-.058-.032-.058-.033-.057-.033-.057-.034-.057-.035-.056-.035-.055-.037-.055-.036-.055-.038-.054-.038-.054-.038-.053-.04-.053-.04-.052-.04-.051-.041-.052-.042-.05-.042-.051-.043-.049-.044-.049-.044-.049-.045-.048-.045-.047-.046-.047-.046-.047-.047-.046-.048-.045-.048-.044-.048-.045-.049-.043-.05-.043-.05-.042-.051-.042-.051-.041-.052-.041-.052-.04-.053-.039-.053-.039-.053-.038-.055-.037-.054-.037-.055-.036-.056-.035-.056-.035-.056-.034-.057-.034-.058-.033-.057-.032-.059-.031-.058-.031-.059-.03-.06-.029-.06-.029-.06-.028-.061-.027-.061-.026-.061-.026-.062-.025-.063-.025-.062-.023-.063-.023-.063-.022-.064-.021-.064-.021-.065-.019-.064-.019-.065-.018-.066-.018-.066-.016-.066-.016-.066-.015-.067-.014-.067-.014-.067-.012-.067-.012-.068-.011-.068-.01-.069-.009-.068-.008-.069-.008-.069-.006-.07-.006-.07-.005-.069-.004-.071-.003-.07-.002-.071-.002-.07v-.142l.002-.071.002-.071.003-.07.004-.07.005-.07.006-.07.006-.069.008-.07.008-.069.009-.068.01-.069.011-.068.012-.067.012-.068.014-.067.014-.067.015-.067.016-.066.016-.066.018-.066.018-.065.019-.065.019-.065.021-.065.021-.064.022-.063.023-.064.023-.063.025-.062.025-.063.026-.061.026-.062.027-.061.028-.061.029-.06.029-.06.03-.059.031-.059.031-.059.032-.058.033-.058.034-.058.034-.056.035-.057.035-.056.036-.056.037-.055.037-.054.038-.054.039-.054.039-.053.04-.053.041-.052.041-.052.042-.051.042-.051.043-.05.043-.05.045-.049.044-.048.045-.048.046-.048.047-.047.047-.046.047-.046.048-.045.049-.045.049-.044.049-.044.051-.042.05-.043.052-.042.051-.041.052-.04.053-.04.053-.039.054-.039.054-.038.055-.038.055-.036.055-.036.056-.036.057-.035.057-.034.057-.033.058-.033.058-.032.059-.032.059-.03.06-.03.059-.03.061-.028.06-.028.062-.027.061-.027.062-.026.062-.025.063-.024.063-.023.063-.023.064-.022.064-.021.064-.021.065-.02.065-.019.065-.018.066-.017.066-.017.067-.015.066-.015.067-.015.067-.013.068-.012.068-.012.068-.011.068-.01.069-.009.069-.009.069-.007.069-.007.07-.005.07-.005.07-.004.071-.003.07-.003.071-.001h.142zm-.117 2l-.045.001-.045.001-.045.002-.045.003-.045.003-.044.004-.045.004-.044.005-.044.005-.043.006-.044.006-.043.007-.043.007-.043.008-.042.009-.043.009-.042.009-.042.01-.042.011-.042.011-.041.011-.041.012-.041.013-.041.013-.041.013-.04.014-.04.014-.04.015-.04.016-.039.016-.039.016-.039.017-.039.017-.039.018-.038.018-.038.018-.038.02-.037.019-.038.02-.037.02-.036.021-.037.022-.036.021-.036.023-.036.022-.035.023-.035.024-.035.023-.035.025-.034.024-.034.025-.033.026-.034.026-.033.026-.032.027-.033.027-.032.027-.032.028-.031.028-.031.029-.031.029-.03.029-.03.03-.03.029-.029.031-.029.031-.028.031-.029.031-.027.032-.028.032-.027.032-.027.033-.026.033-.026.033-.025.034-.025.034-.025.034-.024.034-.024.035-.023.035-.024.036-.022.035-.022.036-.022.037-.021.036-.021.037-.021.037-.019.037-.02.038-.019.038-.019.038-.018.038-.018.038-.017.039-.017.039-.016.039-.016.04-.015.04-.015.039-.015.041-.013.04-.014.041-.013.04-.012.041-.012.042-.012.041-.011.042-.01.041-.01.042-.01.043-.009.042-.008.043-.008.043-.008.043-.007.043-.006.043-.006.044-.005.044-.005.044-.004.044-.004.045-.003.044-.002.045-.002.045-.002.045-.001.046v.091l.001.046.002.045.002.045.002.045.003.045.004.044.004.044.005.044.005.044.006.044.006.043.007.044.008.043.008.042.008.043.009.042.01.043.01.042.01.042.011.041.012.042.012.041.012.041.013.041.014.04.013.041.015.04.015.04.015.039.016.04.016.039.017.039.017.039.018.038.018.039.019.038.019.037.02.038.019.037.021.037.021.037.021.037.022.036.022.036.022.035.024.036.023.035.024.035.024.034.025.034.025.034.025.034.026.033.026.033.027.033.027.032.028.033.027.031.029.032.028.031.029.03.029.031.03.03.03.029.03.03.031.029.031.028.031.028.032.028.032.027.033.028.032.026.033.026.034.026.033.026.034.025.034.025.035.024.035.024.035.023.035.023.036.023.036.022.036.022.037.021.036.021.037.02.038.02.037.02.038.019.038.018.038.018.039.018.039.017.039.017.039.017.039.015.04.016.04.015.04.014.04.014.041.014.041.013.041.012.041.012.041.011.042.011.042.011.042.01.042.009.043.009.042.009.043.008.043.007.043.007.044.006.043.006.044.006.044.004.045.005.044.003.045.003.044.003.046.002.045.001.045.001.046.001.046-.001.045-.001.045-.001.046-.002.044-.003.045-.003.044-.003.045-.005.044-.004.044-.006.043-.006.044-.006.043-.007.043-.007.043-.008.042-.009.043-.009.042-.009.042-.01.042-.011.042-.011.041-.011.041-.012.041-.012.041-.013.041-.014.04-.014.04-.014.04-.015.04-.016.039-.015.039-.017.039-.017.039-.017.039-.018.038-.018.038-.018.038-.019.037-.02.038-.02.037-.02.036-.021.037-.021.036-.022.036-.022.036-.023.035-.023.035-.023.035-.024.035-.024.034-.025.034-.025.033-.026.034-.026.033-.026.032-.026.033-.028.032-.027.032-.028.031-.028.031-.028.031-.029.03-.03.03-.029.03-.03.029-.031.029-.03.028-.031.029-.032.027-.031.028-.033.027-.032.027-.033.026-.033.026-.033.025-.034.025-.034.025-.034.024-.034.024-.035.023-.035.023-.036.023-.035.022-.036.022-.036.021-.037.021-.037.021-.037.019-.037.02-.038.019-.037.019-.038.018-.039.018-.038.017-.039.017-.039.016-.039.016-.04.015-.039.015-.04.015-.04.013-.041.014-.04.013-.041.012-.041.012-.041.012-.042.011-.041.01-.042.01-.042.01-.042.009-.043.008-.043.008-.042.008-.044.007-.043.006-.043.006-.044.005-.044.005-.044.004-.044.004-.044.003-.045.002-.045.002-.045.002-.045.001-.046v-.091l-.001-.046-.002-.045-.002-.045-.002-.045-.003-.044-.004-.045-.004-.044-.005-.044-.005-.044-.006-.044-.006-.043-.007-.043-.008-.043-.008-.043-.008-.043-.009-.042-.01-.043-.01-.042-.01-.041-.011-.042-.012-.042-.012-.041-.012-.041-.013-.04-.014-.041-.013-.04-.015-.041-.015-.039-.015-.04-.016-.04-.016-.039-.017-.039-.017-.039-.018-.038-.018-.038-.019-.038-.019-.038-.02-.038-.02-.037-.02-.037-.021-.037-.021-.036-.022-.037-.022-.035-.023-.036-.023-.036-.023-.035-.024-.035-.024-.034-.025-.034-.025-.034-.025-.034-.026-.033-.026-.033-.027-.033-.027-.032-.028-.032-.027-.032-.029-.031-.028-.031-.029-.031-.029-.031-.03-.029-.03-.03-.03-.029-.031-.029-.031-.029-.031-.028-.032-.028-.032-.027-.033-.027-.032-.027-.033-.026-.034-.026-.033-.026-.034-.025-.034-.024-.035-.025-.035-.023-.035-.024-.035-.023-.036-.022-.036-.023-.036-.021-.037-.022-.036-.021-.037-.02-.038-.02-.037-.019-.038-.02-.038-.018-.038-.018-.039-.018-.039-.017-.039-.017-.039-.016-.039-.016-.04-.016-.04-.015-.04-.014-.04-.014-.041-.013-.041-.013-.041-.013-.041-.012-.041-.011-.042-.011-.042-.011-.042-.01-.042-.009-.043-.009-.042-.009-.043-.008-.043-.007-.043-.007-.044-.006-.043-.006-.044-.005-.044-.005-.045-.004-.044-.004-.045-.003-.045-.003-.045-.002-.045-.001-.045-.001h-.092zm14.117-2l.071.001.07.003.071.003.07.004.07.005.07.005.069.007.069.007.069.009.069.009.068.01.068.011.068.012.068.012.067.013.067.015.066.015.067.015.066.017.066.017.065.018.065.019.065.02.064.021.064.021.064.022.063.023.063.023.063.024.062.025.062.026.061.027.062.027.06.028.061.028.059.03.06.03.059.03.059.032.058.032.058.033.057.033.057.034.057.035.056.036.055.036.055.036.055.038.054.038.054.039.053.039.053.04.052.04.051.041.052.042.05.043.051.042.049.044.049.044.049.045.048.045.047.046.047.046.047.047.046.048.045.048.044.048.045.049.043.05.043.05.042.051.042.051.041.052.041.052.04.053.039.053.039.054.038.054.037.054.037.055.036.056.035.056.035.057.034.056.034.058.033.058.032.058.031.059.031.059.03.059.029.06.029.06.028.061.027.061.026.062.026.061.025.063.025.062.023.063.023.064.022.063.021.064.021.065.019.065.019.065.018.065.018.066.016.066.016.066.015.067.014.067.014.067.012.068.012.067.011.068.01.069.009.068.008.069.008.07.006.069.006.07.005.07.004.07.003.07.002.071.002.071v.142l-.002.07-.002.071-.003.07-.004.071-.005.069-.006.07-.006.07-.008.069-.008.069-.009.068-.01.069-.011.068-.012.068-.012.067-.014.067-.014.067-.015.067-.016.066-.016.066-.018.066-.018.066-.019.065-.019.064-.021.065-.021.064-.022.064-.023.063-.023.063-.025.062-.025.063-.026.062-.026.061-.027.061-.028.061-.029.06-.029.06-.03.06-.031.059-.031.058-.032.059-.033.057-.034.058-.034.057-.035.056-.035.056-.036.056-.037.055-.037.054-.038.055-.039.053-.039.053-.04.053-.041.052-.041.052-.042.051-.042.051-.043.05-.043.05-.045.049-.044.048-.045.048-.046.048-.047.047-.047.046-.047.046-.048.045-.049.045-.049.044-.049.044-.051.043-.05.042-.052.042-.051.041-.052.04-.053.04-.053.04-.054.038-.054.038-.055.038-.055.036-.055.037-.056.035-.057.035-.057.034-.057.033-.058.033-.058.032-.059.032-.059.031-.06.03-.059.029-.061.029-.06.027-.062.028-.061.026-.062.026-.062.025-.063.024-.063.024-.063.022-.064.022-.064.022-.064.02-.065.02-.065.019-.065.018-.066.017-.066.017-.067.016-.066.015-.067.014-.067.013-.068.013-.068.011-.068.011-.068.01-.069.009-.069.009-.069.007-.069.007-.07.006-.07.004-.07.004-.071.004-.07.002-.071.001-.071.001-.071-.001-.071-.001-.07-.002-.071-.004-.07-.004-.07-.004-.07-.006-.069-.007-.069-.007-.069-.009-.069-.009-.068-.01-.068-.011-.068-.011-.068-.013-.067-.013-.067-.014-.066-.015-.067-.016-.066-.017-.066-.017-.065-.018-.065-.019-.065-.02-.064-.02-.064-.022-.064-.022-.063-.022-.063-.024-.063-.024-.062-.025-.062-.026-.061-.026-.062-.028-.06-.027-.061-.029-.059-.029-.06-.03-.059-.031-.059-.032-.058-.032-.058-.033-.057-.033-.057-.034-.057-.035-.056-.035-.055-.037-.055-.036-.055-.038-.054-.038-.054-.038-.053-.04-.053-.04-.052-.04-.051-.041-.052-.042-.05-.042-.051-.043-.049-.044-.049-.044-.049-.045-.048-.045-.047-.046-.047-.046-.047-.047-.046-.048-.045-.048-.044-.048-.045-.049-.043-.05-.043-.05-.042-.051-.042-.051-.041-.052-.041-.052-.04-.053-.039-.053-.039-.053-.038-.055-.037-.054-.037-.055-.036-.056-.035-.056-.035-.056-.034-.057-.034-.058-.033-.057-.032-.059-.031-.058-.031-.059-.03-.06-.029-.06-.029-.06-.028-.061-.027-.061-.026-.061-.026-.062-.025-.063-.025-.062-.023-.063-.023-.063-.022-.064-.021-.064-.021-.065-.019-.064-.019-.065-.018-.066-.018-.066-.016-.066-.016-.066-.015-.067-.014-.067-.014-.067-.012-.067-.012-.068-.011-.068-.01-.069-.009-.068-.008-.069-.008-.069-.006-.07-.006-.07-.005-.069-.004-.071-.003-.07-.002-.071-.002-.07v-.142l.002-.071.002-.071.003-.07.004-.07.005-.07.006-.07.006-.069.008-.07.008-.069.009-.068.01-.069.011-.068.012-.067.012-.068.014-.067.014-.067.015-.067.016-.066.016-.066.018-.066.018-.065.019-.065.019-.065.021-.065.021-.064.022-.063.023-.064.023-.063.025-.062.025-.063.026-.061.026-.062.027-.061.028-.061.029-.06.029-.06.03-.059.031-.059.031-.059.032-.058.033-.058.034-.058.034-.056.035-.057.035-.056.036-.056.037-.055.037-.054.038-.054.039-.054.039-.053.04-.053.041-.052.041-.052.042-.051.042-.051.043-.05.043-.05.045-.049.044-.048.045-.048.046-.048.047-.047.047-.046.047-.046.048-.045.049-.045.049-.044.049-.044.051-.042.05-.043.052-.042.051-.041.052-.04.053-.04.053-.039.054-.039.054-.038.055-.038.055-.036.055-.036.056-.036.057-.035.057-.034.057-.033.058-.033.058-.032.059-.032.059-.03.06-.03.059-.03.061-.028.06-.028.062-.027.061-.027.062-.026.062-.025.063-.024.063-.023.063-.023.064-.022.064-.021.064-.021.065-.02.065-.019.065-.018.066-.017.066-.017.067-.015.066-.015.067-.015.067-.013.068-.012.068-.012.068-.011.068-.01.069-.009.069-.009.069-.007.069-.007.07-.005.07-.005.07-.004.071-.003.07-.003.071-.001h.142zm-.117 2l-.045.001-.045.001-.045.002-.045.003-.045.003-.044.004-.045.004-.044.005-.044.005-.043.006-.044.006-.043.007-.043.007-.043.008-.042.009-.043.009-.042.009-.042.01-.042.011-.042.011-.041.011-.041.012-.041.013-.041.013-.041.013-.04.014-.04.014-.04.015-.04.016-.039.016-.039.016-.039.017-.039.017-.039.018-.038.018-.038.018-.038.02-.037.019-.038.02-.037.02-.036.021-.037.022-.036.021-.036.023-.036.022-.035.023-.035.024-.035.023-.035.025-.034.024-.034.025-.033.026-.034.026-.033.026-.032.027-.033.027-.032.027-.032.028-.031.028-.031.029-.031.029-.03.029-.03.029-.03.03-.029.031-.029.031-.028.031-.029.031-.027.032-.028.032-.027.032-.027.033-.026.033-.026.033-.025.034-.025.034-.025.034-.024.034-.024.035-.023.035-.024.036-.022.035-.022.036-.022.037-.021.036-.021.037-.021.037-.019.037-.02.038-.019.038-.019.038-.018.038-.018.038-.017.039-.017.039-.016.039-.016.04-.015.04-.015.039-.015.041-.013.04-.014.041-.013.04-.012.041-.012.042-.012.041-.011.041-.01.042-.01.042-.01.043-.009.042-.008.043-.008.043-.008.043-.007.043-.006.043-.006.044-.005.044-.005.044-.004.044-.004.045-.003.044-.002.045-.002.045-.002.045-.001.046v.091l.001.046.002.045.002.045.002.045.003.045.004.044.004.044.005.044.005.044.006.044.006.043.007.043.008.044.008.042.008.043.009.042.01.043.01.042.01.042.011.041.012.042.012.041.012.041.013.041.014.04.013.041.015.04.015.04.015.039.016.04.016.039.017.039.017.039.018.038.018.039.019.038.019.037.02.038.019.037.021.037.021.037.021.037.022.036.022.036.022.035.024.036.023.035.024.035.024.034.025.035.025.033.025.034.026.033.026.033.027.033.027.032.028.033.027.031.029.032.028.031.029.03.029.031.03.03.03.029.03.03.031.029.031.028.031.028.032.028.032.027.033.028.032.026.033.026.034.026.033.026.034.025.034.025.035.024.035.024.035.023.035.023.036.023.036.022.036.022.037.021.036.021.037.02.038.02.037.02.038.019.038.018.038.018.039.018.039.017.039.017.039.017.039.015.04.016.04.015.04.014.04.014.041.014.041.013.041.012.041.012.041.011.042.011.042.011.042.01.042.009.043.009.042.009.043.008.043.007.043.007.044.006.043.006.044.006.044.004.045.005.044.003.045.003.044.003.046.002.045.001.045.001.046.001.046-.001.045-.001.045-.001.046-.002.044-.003.045-.003.044-.003.045-.005.044-.004.044-.006.043-.006.044-.006.043-.007.043-.007.043-.008.042-.009.043-.009.042-.009.042-.01.042-.011.042-.011.041-.011.041-.012.041-.012.041-.013.041-.014.04-.014.04-.014.04-.015.04-.016.039-.015.039-.017.039-.017.039-.017.039-.018.038-.018.038-.018.038-.019.037-.02.038-.02.037-.02.036-.021.037-.021.036-.022.036-.022.036-.023.035-.023.035-.023.035-.024.035-.024.034-.025.034-.025.033-.026.034-.026.033-.026.032-.026.033-.028.032-.027.032-.028.031-.028.031-.028.031-.029.03-.03.03-.029.03-.03.029-.031.029-.03.028-.031.029-.032.027-.031.028-.033.027-.032.027-.033.026-.033.026-.033.025-.034.025-.033.025-.035.024-.034.024-.035.023-.035.024-.036.022-.035.022-.036.022-.036.021-.037.021-.037.021-.037.019-.037.02-.038.019-.037.019-.038.018-.039.018-.038.017-.039.017-.039.016-.039.016-.04.015-.039.015-.04.015-.04.013-.041.014-.04.013-.041.012-.041.012-.041.012-.042.011-.041.01-.042.01-.042.01-.043.009-.042.008-.043.008-.042.008-.044.007-.043.006-.043.006-.044.005-.044.005-.044.004-.044.004-.044.003-.045.002-.045.002-.045.002-.045.001-.046v-.091l-.001-.046-.002-.045-.002-.045-.002-.045-.003-.044-.004-.045-.004-.044-.005-.044-.005-.044-.006-.044-.006-.043-.007-.043-.008-.043-.008-.043-.008-.043-.009-.042-.01-.043-.01-.042-.01-.041-.011-.042-.012-.041-.012-.042-.012-.041-.013-.04-.014-.041-.013-.04-.015-.041-.015-.039-.015-.04-.016-.04-.016-.039-.017-.039-.017-.039-.018-.038-.018-.038-.019-.038-.019-.038-.02-.038-.02-.037-.02-.037-.021-.037-.021-.036-.022-.037-.022-.035-.022-.036-.024-.036-.023-.035-.024-.035-.024-.034-.025-.034-.025-.034-.025-.034-.026-.033-.026-.033-.027-.033-.027-.032-.028-.032-.027-.032-.029-.031-.028-.031-.029-.031-.029-.031-.03-.029-.03-.03-.03-.029-.031-.029-.031-.029-.031-.028-.032-.028-.032-.027-.033-.027-.032-.027-.033-.026-.034-.026-.033-.026-.034-.025-.034-.024-.035-.025-.035-.023-.035-.024-.035-.023-.036-.022-.036-.023-.036-.021-.037-.022-.036-.021-.037-.02-.038-.02-.037-.019-.038-.02-.038-.018-.038-.018-.039-.018-.039-.017-.039-.017-.039-.016-.039-.016-.04-.016-.04-.015-.04-.014-.04-.014-.041-.013-.041-.013-.041-.013-.041-.012-.041-.011-.042-.011-.042-.011-.042-.01-.042-.009-.043-.009-.042-.009-.043-.008-.043-.007-.043-.007-.044-.006-.043-.006-.044-.005-.044-.005-.045-.004-.044-.004-.045-.003-.045-.003-.045-.002-.045-.001-.045-.001h-.092z"/><path d="M17.718 25.012c.418-.397.852-.777 1.302-1.137m2.706-1.825c1.043-.586 2.144-1.081 3.292-1.475" fill="none" stroke="#000" stroke-width="2"/></g></svg>