<svg viewBox="0 0 64 64" xmlns="http://www.w3.org/2000/svg" fill-rule="evenodd" clip-rule="evenodd" stroke-linecap="round" stroke-linejoin="round" stroke-miterlimit="1.5"><path fill="none" d="M0 0h64v64H0z"/><clipPath id="a"><path d="M0 0h64v64H0z"/></clipPath><g fill="none" stroke="#000" stroke-width="2" clip-path="url(#a)"><path d="M35 16s-.772-3.425-.533-7.002c.117-1.762.237-3.561.333-5.005.052-.775-.22-1.537-.75-2.104C33.519 1.322 32.777 1 32.001 1h-.002c-.776 0-1.518.322-2.049.889-.53.567-.802 1.329-.75 2.104.096 1.447.216 3.25.334 5.015C29.772 12.581 29 16 29 16m-9.024 12.057C19.338 29.611 19 31.288 19 33v5c0 4.239-1.274 8.025-2 9.971C15.919 50.87 13 57 13 57c13.915 2.576 23.914 2.581 38 0 0 0-3.007-5.969-4-9.029-.639-1.967-2-5.753-2-9.971v-5c0-1.755-.348-3.429-.978-4.956m-20.661 1.914C23.123 30.946 23 31.967 23 33"/><path d="M23 36.661V38c0 2.428-.418 4.707-.911 6.577m-6.943 7.805c12.038 2.053 21.306 2.071 33.442.041M29 16c-4.435-3.102-7.029-5.711-11.368-6.654-1.464-.342-2.949.482-3.434 1.905-1.656 4.949-1.607 10.097.002 15.418.465 1.504 2.02 2.386 3.549 2.014C21.889 27.662 24.489 25.048 29 22m5.969-6c4.435-3.102 7.029-5.711 11.367-6.654 1.465-.342 2.95.482 3.435 1.905 1.656 4.949 1.607 10.097-.002 15.418-.465 1.504-2.02 2.386-3.549 2.014-4.14-1.021-6.74-3.635-11.251-6.683"/><circle cx="32" cy="19" r="4"/><path d="M36.908 58.957C36.461 61.26 34.432 63 32 63c-2.453 0-4.495-1.77-4.919-4.101"/></g></svg>