<svg viewBox="0 0 64 64" xmlns="http://www.w3.org/2000/svg" fill-rule="evenodd" clip-rule="evenodd" stroke-linecap="round" stroke-linejoin="round" stroke-miterlimit="1.5"><path fill="none" d="M0 0h64v64H0z"/><clipPath id="a"><path d="M0 0h64v64H0z"/></clipPath><g fill="none" stroke="#000" stroke-width="2" clip-path="url(#a)"><path d="M54 1H11c-1.326 0-2.598.527-3.536 1.464C6.527 3.402 6 4.674 6 6s.527 2.598 1.464 3.536C8.402 10.473 9.674 11 11 11h43"/><path d="M6 6v52c0 2.761 2.239 5 5 5h43V11M51 1c-2.596 3.506-2.576 6.838 0 10M11 25v37m0-51v10"/><path d="M17 17h31v38H17z"/><path d="M33 21l1.787 5.5 3.444-1.7-.552 3.801h5.783L38.783 32l2.681 2.75-3.785.649 1.787 5.5-4.679-3.399L33 40.899 31.213 37.5l-4.679 3.399 1.787-5.5-3.785-.649L27.217 32l-4.679-3.399h5.783l-.552-3.801 3.444 1.7L33 21zM21 46h10m-10 4h23m-10-4h4"/></g></svg>