<svg viewBox="0 0 64 64" xmlns="http://www.w3.org/2000/svg" fill-rule="evenodd" clip-rule="evenodd" stroke-linecap="round" stroke-linejoin="round" stroke-miterlimit="1.5"><path fill="none" d="M0 0h64v64H0z"/><g fill="none" stroke="#000" stroke-width="2"><path d="M37 18.929c-3.271-1.224-6.607-1.163-10 0v9.714c3.549 1.407 6.892 1.469 10 0v-9.714zm-10 0C21.449 13.93 15.426 9.449 6.472 8.177c-.874-.123-1.726.345-2.09 1.15C-.292 19.777.06 30.198 4.374 40.558c.366.868 1.289 1.362 2.215 1.184C15.558 39.958 21.438 34.251 27 28.643M7.887 13.167c-.311.939-.582 1.878-.815 2.816m-.611 2.992c-.451 2.808-.562 5.613-.354 8.414m49.899-14.222c.311.939.582 1.878.814 2.816m.611 2.992c.452 2.808.563 5.613.354 8.414"/><path d="M37.006 18.929c5.55-4.999 11.574-9.48 20.527-10.752.875-.123 1.727.345 2.09 1.15 4.675 10.45 4.323 20.871.009 31.231-.366.868-1.289 1.362-2.215 1.184-8.969-1.784-14.849-7.491-20.411-13.099m-17.961 7.581l-5.104 19.048 7.732-1.035 5.859 4.676 7.96-29.704"/><path d="M44.342 35.683l5.249 19.589-7.731-1.035L36 58.913 31.937 43.75m5.783-14.647C45.914 30.277 51.216 31.114 56 35m-29.794-5.886C18.054 30.282 12.769 31.126 8 35"/></g></svg>