<svg viewBox="0 0 64 64" xmlns="http://www.w3.org/2000/svg" fill-rule="evenodd" clip-rule="evenodd" stroke-linecap="round" stroke-linejoin="round" stroke-miterlimit="1.5"><path fill="none" d="M0 0h64v64H0z"/><clipPath id="a"><path d="M0 0h64v64H0z"/></clipPath><g fill="none" stroke="#000" stroke-width="2" clip-path="url(#a)"><path d="M10.502 8H1v54h62V8h-9.524M45 8h-9m-8 0h-9m-4 10h47M2 18h8"/><path d="M36 6c0-1.061-.421-2.078-1.172-2.828C34.078 2.421 33.061 2 32 2s-2.078.421-2.828 1.172C28.421 3.922 28 4.939 28 6v4c0 1.061.421 2.078 1.172 2.828C29.922 13.579 30.939 14 32 14s2.078-.421 2.828-1.172C35.579 12.078 36 11.061 36 10V6zm17 0c0-1.061-.421-2.078-1.172-2.828C51.078 2.421 50.061 2 49 2s-2.078.421-2.828 1.172C45.421 3.922 45 4.939 45 6v4c0 1.061.421 2.078 1.172 2.828C46.922 13.579 47.939 14 49 14s2.078-.421 2.828-1.172C52.579 12.078 53 11.061 53 10V6zM19 6c0-1.061-.421-2.078-1.172-2.828C17.078 2.421 16.061 2 15 2s-2.078.421-2.828 1.172C11.421 3.922 11 4.939 11 6v4c0 1.061.421 2.078 1.172 2.828C12.922 13.579 13.939 14 15 14h.002C17.21 14 19 12.21 19 10.002V6zm-8.6 16H5v36h54V22H14.756M11 34h10m-10 5h10m-10 5h10"/><path d="M35.911 34.432c0 6.464-6.976 7.552-6.976 14.144v2.752h10.176v-3.2h-6.656c-.032-.16-.032-.32-.032-.48 0-3.68 7.008-6.304 7.008-13.344 0-3.584-1.792-5.632-5.248-5.632-3.456 0-5.248 2.048-5.248 5.632v2.176h3.328v-2.4c0-1.6.704-2.208 1.824-2.208s1.824.544 1.824 2.56zm6.536 9.736v1.856c0 3.584 1.792 5.632 5.248 5.632 3.456 0 5.248-2.048 5.248-5.632v-4.992c0-3.296-1.312-5.12-3.904-5.12-.91 0-1.843.171-3.018.632l.234-4.344h6.112V29h-9.28l-.607 12.32h3.295c0-1.6.704-2.208 1.824-2.208s1.824.608 1.824 2.208v4.928c0 1.6-.704 2.176-1.824 2.176s-1.824-.576-1.824-2.176v-2.08h-3.328z" stroke-linecap="butt" stroke-miterlimit="1.41421"/></g></svg>