<svg viewBox="0 0 64 64" xmlns="http://www.w3.org/2000/svg" fill-rule="evenodd" clip-rule="evenodd" stroke-linecap="round" stroke-linejoin="round" stroke-miterlimit="1.5"><path fill="none" d="M0 0h64v64H0z"/><clipPath id="a"><path d="M0 0h64v64H0z"/></clipPath><g fill="none" stroke="#000" stroke-width="2" clip-path="url(#a)"><path d="M48 51V27c0-3.314-2.686-6-6-6h-4c-1.087 0-2.107.289-2.987.795M40 6c1.104 0 3 3.564 3 6.6 0 3.036-1.896 4.4-3 4.4s-3-1.364-3-4.4C37 9.564 38.896 6 40 6z"/><path d="M35.146 28H36c1.105 0 2 .895 2 2v3c0 1.105.895 2 2 2s2-.895 2-2v-3c0-.53.211-1.039.586-1.414S43.47 28 44 28h3m-7-15v7m-5 31V22c0-1.591-.632-3.117-1.757-4.243C32.117 16.632 30.591 16 29 16h-6c-1.591 0-3.117.632-4.243 1.757C17.632 18.883 17 20.409 17 22v29M27 1c1.104 0 3 3.564 3 6.6 0 3.036-1.896 4.4-3 4.4s-3-1.364-3-4.4C24 4.564 25.896 1 27 1z"/><path d="M17 23h2c.552 0 1 .448 1 1v3.486C20 28.874 21.126 30 22.514 30h.002c.394 0 .771.156 1.049.435.279.278.435.655.435 1.049V34c0 1.105.895 2 2 2 .53 0 1.039-.211 1.414-.586S28 34.53 28 34v-4.017m0-2.963V25c0-1.105.895-2 2-2h4M27 8v7m28 36H9v1c0 1.857.737 3.637 2.05 4.95C12.363 58.263 14.143 59 16 59h32c1.857 0 3.637-.737 4.95-2.05C54.263 55.637 55 53.857 55 52v-1zm-6 9c0 .796-.316 1.559-.879 2.121-.562.563-1.325.879-2.121.879H18c-.796 0-1.559-.316-2.121-.879C15.316 61.559 15 60.796 15 60v-1h34v1z"/></g></svg>