<svg viewBox="0 0 64 64" xmlns="http://www.w3.org/2000/svg" fill-rule="evenodd" clip-rule="evenodd" stroke-linecap="round" stroke-linejoin="round" stroke-miterlimit="1.5"><path fill="none" d="M0 0h64v64H0z"/><clipPath id="a"><path d="M0 0h64v64H0z"/></clipPath><g fill="none" stroke="#000" stroke-width="2" clip-path="url(#a)"><path d="M46.588 13.066c-.837-4.447-.73-7.784 0-12.055C59.003.774 54.388 8.229 63 17.084c-3.926 1.255-8.036 1.202-12.309 0M28 21.005v29m-10 1v-20m30-16v16m-10 10v-28"/><path d="M32.304 16.145s.434-.434 1.112-1.111c2.062-2.063 4.86-3.222 7.776-3.222 2.917 0 5.715 1.159 7.777 3.222.001 0 .001 0 .002.001 4.295 4.296 4.295 11.26 0 15.556l-3.421 3.421-14.964 14.964c-2.063 2.063-4.861 3.222-7.778 3.222-2.918 0-5.716-1.159-7.779-3.222-4.295-4.296-4.295-11.261 0-15.556l14.492-14.492M17.412 50.94c.837 4.446.73 7.783 0 12.054-8.75.168-9.041-3.486-11.465-8.758"/><path d="M4.477 51.422C3.616 49.987 2.512 48.476 1 46.921c3.926-1.254 8.036-1.202 12.309 0"/></g></svg>