<svg viewBox="0 0 64 64" xmlns="http://www.w3.org/2000/svg" fill-rule="evenodd" clip-rule="evenodd" stroke-linecap="round" stroke-linejoin="round" stroke-miterlimit="1.5"><path fill="none" d="M0 0h64v64H0z"/><clipPath id="a"><path d="M0 0h64v64H0z"/></clipPath><g fill="none" stroke="#000" stroke-width="2" clip-path="url(#a)"><path d="M60.975 32.932h-58s1.993 19.924 2.73 27.298c.153 1.534 1.444 2.702 2.985 2.702h46.57c1.542 0 2.832-1.168 2.985-2.702.738-7.374 2.73-27.298 2.73-27.298zm-28.602-14H2.975c-1.104 0-2 .895-2 2v10c0 1.104.896 2 2 2h58c1.105 0 2-.896 2-2v-10c0-1.105-.895-2-2-2H44.243"/><path d="M49.713 9.262c.663-1.149.843-2.513.499-3.794-.343-1.281-1.181-2.373-2.329-3.036-.001-.001-.001-.001-.002-.001-1.148-.663-2.512-.843-3.793-.5-1.28.344-2.372 1.181-3.034 2.329-2.677 4.637-6.901 11.953-9.579 16.59-.663 1.149-.842 2.514-.499 3.794.343 1.281 1.181 2.373 2.329 3.036 1.149.664 2.514.843 3.794.5 1.281-.343 2.373-1.181 3.036-2.33 2.678-4.637 6.901-11.951 9.578-16.588zM18 41c0-.796-.316-1.559-.879-2.121C16.559 38.316 15.796 38 15 38s-1.559.316-2.121.879C12.316 39.441 12 40.204 12 41v13c0 .796.316 1.559.879 2.121.562.563 1.325.879 2.121.879s1.559-.316 2.121-.879c.563-.562.879-1.325.879-2.121V41zm11 0c0-.796-.316-1.559-.879-2.121C27.559 38.316 26.796 38 26 38s-1.559.316-2.121.879C23.316 39.441 23 40.204 23 41v13c0 .796.316 1.559.879 2.121.562.563 1.325.879 2.121.879s1.559-.316 2.121-.879c.563-.562.879-1.325.879-2.121V41zm12 0c0-.796-.316-1.559-.879-2.121C39.559 38.316 38.796 38 38 38s-1.559.316-2.121.879C35.316 39.441 35 40.204 35 41v13c0 .796.316 1.559.879 2.121.562.563 1.325.879 2.121.879s1.559-.316 2.121-.879c.563-.562.879-1.325.879-2.121V41zm11 0c0-.796-.316-1.559-.879-2.121C50.559 38.316 49.796 38 49 38s-1.559.316-2.121.879C46.316 39.441 46 40.204 46 41v13c0 .796.316 1.559.879 2.121.562.563 1.325.879 2.121.879s1.559-.316 2.121-.879c.563-.562.879-1.325.879-2.121V41z"/></g></svg>