<svg viewBox="0 0 64 64" xmlns="http://www.w3.org/2000/svg" fill-rule="evenodd" clip-rule="evenodd" stroke-linecap="round" stroke-linejoin="round" stroke-miterlimit="1.5"><path fill="none" d="M0 0h64v64H0z"/><clipPath id="a"><path d="M0 0h64v64H0z"/></clipPath><g fill="none" stroke="#000" stroke-width="2" clip-path="url(#a)"><path d="M10 42h4.878c0-2.76 2.404-5 5.366-5 2.961 0 5.366 2.24 5.366 5H30v13h-4.39c0 2.76-2.405 5-5.366 5-2.962 0-5.366-2.24-5.366-5H10"/><path d="M27.594 27.354c-3.858-6.872-3.926-11.733-3.926-11.779V6.827c.336-.122.577-.443.577-.822v-4.13c0-.483-.391-.875-.872-.875h-6.789c-.481 0-.871.392-.871.875v4.13c0 .379.24.701.576.822v8.746c0 .048-.067 4.909-3.926 11.781-2.453 4.369-2.389 10.58-2.383 10.947l-.001 21.39c0 1.825 1.479 3.309 3.297 3.309h13.405c1.818 0 3.298-1.484 3.298-3.309L29.977 38.3c.006-.372.068-6.579-2.383-10.946z" stroke-linecap="butt" stroke-miterlimit="1.41421"/><path d="M53 10H39v25c0 1.857.737 3.637 2.05 4.95C42.363 41.263 44.143 42 46 42c3.866 0 7-3.134 7-7V10zm-7 32v14m0 0l-9 7h18l-9-7M23 7h-6m36 16h-7m-7 0h3m-28 2l6 5 6-5m-10-6l4 3 4-3M10 46h20m-20 5h20"/></g></svg>