<svg viewBox="0 0 64 64" xmlns="http://www.w3.org/2000/svg" fill-rule="evenodd" clip-rule="evenodd" stroke-linecap="round" stroke-linejoin="round" stroke-miterlimit="1.5"><path fill="none" d="M0 0h64v64H0z"/><clipPath id="a"><path d="M0 0h64v64H0z"/></clipPath><g fill="none" stroke="#000" stroke-width="2" clip-path="url(#a)"><path d="M2.621 31.021C1.583 28.901 1 26.518 1 24 1 15.169 8.169 8 17 8c1.214 0 2.398.136 3.535.392 2.255.505 4.598-.348 6-2.186C28.946 3.059 32.734 1 37 1c5.934 0 10.945 3.985 12.501 9.422.278 1.01 1.067 1.799 2.077 2.077C57.015 14.055 61 19.066 61 25c0 1.49-.251 2.921-.713 4.255"/><path d="M36.067 19.154C51.257 20.312 63 27.866 63 37c0 9.934-13.891 18-31 18-4.599 0-8.965-.583-12.891-1.628L8 63l3.315-12.598C4.985 47.106 1 42.321 1 37c0-3.674 1.9-7.093 5.161-9.943"/><path d="M20.611 34.171c.553.619.889 1.435.889 2.329 0 1.932-1.568 3.5-3.5 3.5s-3.5-1.568-3.5-3.5c0-.461.089-.901.251-1.304"/><circle cx="32" cy="36.5" r="3.5"/><circle cx="46" cy="36.5" r="3.5"/><path d="M34.656 15.36C35.509 17.01 36 18.939 36 21c0 6.071-4.257 11-9.5 11-1.007 0-1.977-.182-2.887-.518C21.778 33.634 19.047 35 16 35c-5.519 0-10-4.481-10-10 0-.981.142-1.929.405-2.826"/></g></svg>