<svg viewBox="0 0 64 64" xmlns="http://www.w3.org/2000/svg" fill-rule="evenodd" clip-rule="evenodd" stroke-linecap="round" stroke-linejoin="round" stroke-miterlimit="1.5"><path fill="none" d="M0 0h64v64H0z"/><clipPath id="a"><path d="M0 0h64v64H0z"/></clipPath><g fill="none" stroke="#000" stroke-width="2" clip-path="url(#a)"><path d="M1.334 22.162C1.115 21.142 1 20.085 1 19 1 10.721 7.721 4 16 4c2.224 0 4.336.485 6.235 1.355C24.245 2.71 27.424 1 31 1c4.226 0 7.898 2.388 9.74 5.887.278.521.773.892 1.352 1.01.579.118 1.181-.029 1.64-.401C45.732 5.921 48.259 5 51 5c6.623 0 12 5.377 12 12 0 1.608-.317 3.143-.892 4.545"/><path d="M37.146 17H54.95c4.443 0 8.05 3.607 8.05 8.05v19.1c0 4.443-3.607 8.05-8.05 8.05h-10.1L50.6 63 35.55 52.2H9.05C4.607 52.2 1 48.593 1 44.15v-19.1c0-4.048 2.994-7.401 6.886-7.966"/><circle cx="18" cy="34.5" r="3.5"/><circle cx="18" cy="34.5" r="3.5"/><circle cx="32" cy="34.5" r="3.5"/><circle cx="46" cy="34.5" r="3.5"/><path d="M36.601 14.082c.259.759.399 1.572.399 2.418 0 4.139-3.361 7.5-7.5 7.5-1.752 0-3.365-.602-4.642-1.611C23.317 25.139 20.374 27 17 27c-4.967 0-9-4.033-9-9 0-1.639.439-3.177 1.206-4.501"/></g></svg>