<svg viewBox="0 0 64 64" xmlns="http://www.w3.org/2000/svg" fill-rule="evenodd" clip-rule="evenodd" stroke-linecap="round" stroke-linejoin="round" stroke-miterlimit="1.5"><path fill="none" d="M0 0h64v64H0z"/><clipPath id="a"><path d="M0 0h64v64H0z"/></clipPath><g fill="none" stroke="#000" stroke-width="2" clip-path="url(#a)"><circle cx="32" cy="32" r="31"/><path d="M14.731 13.929C19.221 9.638 25.305 7 32 7c13.798 0 25 11.202 25 25S45.798 57 32 57 7 45.798 7 32c0-5.223 1.605-10.074 4.349-14.087M32 11v2m-11 1l1 1.732M13 22l1.732 1M42 14l-1 1.732M50 22l-1.732 1M21 50l1-1.732M13 42l1.732-1M42 50l-1-1.732M50 42l-1.732-1M11 32h2m38 0h2M32 51v2m0-31v7m0 6v4m-7.994-20l6.313 10"/><circle cx="32" cy="32" r="3"/></g></svg>