<svg viewBox="0 0 64 64" xmlns="http://www.w3.org/2000/svg" fill-rule="evenodd" clip-rule="evenodd" stroke-linecap="round" stroke-linejoin="round" stroke-miterlimit="1.5"><path fill="none" d="M0 0h64v64H0z"/><clipPath id="a"><path d="M0 0h64v64H0z"/></clipPath><g fill="none" stroke="#000" stroke-width="2" clip-path="url(#a)"><path d="M44.394 11.226c9.612 1.453 16.99 9.759 16.99 19.774 0 9.965-7.304 18.238-16.846 19.752"/><path d="M44.434 16.372c6.487 1.576 11.95 7.931 11.95 14.628 0 6.628-5.352 12.923-11.752 14.579M38.884 59h-32v2c0 .53.21 1.039.586 1.414.375.375.883.586 1.414.586h28c.53 0 1.039-.211 1.414-.586s.586-.884.586-1.414v-2zM14.5 19.515l5.46 5.46m6 6l5.511 5.51m-16.971 0l5.436-5.435m6-6l5.535-5.535M22.985 40v-7.903m0-8.097v-8m12 12h-7.369m-8.921 0h-7.71m9.172-2.828c1.561-1.561 4.096-1.561 5.657 0s1.561 4.095 0 5.656-4.096 1.561-5.657 0-1.561-4.095 0-5.656zm-7.071-2.829h4.242v-4.242m12.021 20.506v-4.243h4.243m-21.213 0h4.242v4.243m12.728-21.214v4.243h4.243M20.015 16l3 3 3-3m0 24l-3-3-3 3m-9-9l3-3-3-3m24 6l-3-3 3-3"/><path d="M44 1H2v52c0 3.314 2.686 6 6 6h30c3.314 0 6-2.686 6-6V1zM6 12v8M6 5v3"/></g></svg>