<svg viewBox="0 0 64 64" xmlns="http://www.w3.org/2000/svg" fill-rule="evenodd" clip-rule="evenodd" stroke-linecap="round" stroke-linejoin="round" stroke-miterlimit="1.5"><path fill="none" d="M0 0h64v64H0z"/><clipPath id="a"><path d="M0 0h64v64H0z"/></clipPath><g fill="none" stroke="#000" stroke-width="2" clip-path="url(#a)"><path d="M20.335 31.449C16.552 28.419 12.892 27.241 8 27c1.099 5.012 2.972 8.51 9 9m-9-9c5.306 1.097 7.251 3.482 10 7m7.761-6.628C27.705 26.493 29.835 26 32 26c2.238 0 4.438.526 6.435 1.462"/><path d="M41.563 29.394C44.813 31.962 47 35.763 47 40c0 4.567-.636 9.405-3.657 12.145-.817.724-1.284 1.763-1.284 2.855H42c0 3.866-6.134 8-10 8-3.866 0-10-4.134-10-8v-.001c0-1.108-.475-2.162-1.304-2.897C17.636 49.406 17 44.568 17 40c0-4.326 2.28-8.197 5.643-10.766"/><path d="M29.308 51.755c0-1.188 1.201-2.154 2.682-2.154 1.48 0 2.681.966 2.681 2.154 0 1.189-1.201 2.154-2.681 2.154-1.481 0-2.682-.965-2.682-2.154zm14.569-20.306c3.783-3.03 7.443-4.208 12.335-4.449-1.099 5.012-2.972 8.51-9 9m9-9c-5.306 1.097-7.251 3.482-10 7"/><path d="M24.139 30.425c-1.474-1.216-3.195-2.869-4.79-4.973-.777-1.026-1.481-2.108-2.091-3.214-.141-.256-.339-.465-.574-.605-.944-.563-3.22-1.598-7.848-2.206-.383-.051-.729-.269-.976-.614-.247-.346-.365-.778-.332-1.217.069-.905.768-1.557 1.558-1.454 1.388.183 2.693.419 3.879.703.471.113.955-.05 1.289-.435.334-.385.474-.941.374-1.483-.753-4.081-.436-8.423.943-12.904.262-.852 1.085-1.281 1.833-.956.749.324 1.144 1.281.882 2.132-2.283 7.422-1.245 14.136 3.086 19.954 1.791 2.406 3.806 4.179 5.317 5.321m13.384 1.951c1.474-1.216 3.195-2.869 4.789-4.973.778-1.026 1.482-2.108 2.091-3.214.142-.256.34-.465.575-.605.944-.563 3.22-1.598 7.848-2.206.383-.051.729-.269.976-.614.247-.346.365-.778.332-1.217-.07-.905-.768-1.557-1.558-1.454-1.388.183-2.693.419-3.879.703-.471.113-.955-.05-1.289-.435-.334-.385-.474-.941-.374-1.483.753-4.081.435-8.423-.943-12.904-.262-.852-1.085-1.281-1.833-.956-.749.324-1.144 1.281-.882 2.132 2.283 7.422 1.245 14.136-3.086 19.954-1.791 2.406-3.806 4.179-5.317 5.321" stroke-miterlimit="1.41421"/><path d="M23 40.725c1.755-1.383 4.419-1.282 6 0m6 0c1.755-1.383 4.419-1.282 6 0M32 55c-.346 2.184-1.548 3.342-4 3m4-3c.346 2.184 1.548 3.342 4 3"/></g></svg>