<svg viewBox="0 0 64 64" xmlns="http://www.w3.org/2000/svg" fill-rule="evenodd" clip-rule="evenodd" stroke-linecap="round" stroke-linejoin="round" stroke-miterlimit="1.5"><path fill="none" d="M0 0h64v64H0z"/><clipPath id="a"><path d="M0 0h64v64H0z"/></clipPath><g fill="none" stroke="#000" stroke-width="2" clip-path="url(#a)"><path d="M18 14.43V10H4v5.304"/><path d="M25.006 25H38V8H16v1.894m31 22.272V25H24.909M1 63v-4h54.16c2.121 0 3.84-1.719 3.84-3.84v-.001c0-1.298-.806-2.461-2.022-2.917-1.481-.555-3.445-1.292-4.71-1.767C51.505 50.189 51 49.46 51 48.646v-.002c0-.612.295-1.188.792-1.546.497-.358 1.135-.456 1.717-.262 1.363.455 3.095 1.032 4.705 1.569 2.858.952 4.786 3.627 4.786 6.64V56c0 1.857-.737 3.637-2.05 4.95C59.637 62.263 57.857 63 56 63H1z"/><path d="M48.657 32c-1.061 0-2.078.421-2.829 1.172l-1.364 1.364c-.937.937-2.209 1.464-3.535 1.464h-9.214c-2.229 0-4.188-1.474-4.805-3.615-.827-2.87-2.024-7.023-3.131-10.865-1.608-5.579-7.275-8.948-12.944-7.694C5.897 14.917 1 16 1 16s2.971 25.257 3.792 32.234C4.911 49.241 5.764 50 6.779 50h37.124c.668 0 1.292-.333 1.663-.889 1.315-1.969 4.573-6.844 7.276-10.889.82-1.227.898-2.806.202-4.108C52.348 32.813 50.992 32 49.516 32h-.859zM8 50h4v9H8zm30 0h4v9h-4zm11-6H16m-4 0H5"/><path d="M2 20s6.058-1.136 10.719-2.01c3.006-.563 5.955 1.224 6.845 4.15 1.247 4.097 2.972 9.763 4.142 13.607.768 2.526 3.099 4.253 5.74 4.253H51M33 25v11m4-11v11M25 8v16m4-16v16M25 8c-13.912-5.757 1.454-12.439 2 0 .278-11.911 15.894-6.122 2 0"/></g></svg>