<svg viewBox="0 0 64 64" xmlns="http://www.w3.org/2000/svg" fill-rule="evenodd" clip-rule="evenodd" stroke-linecap="round" stroke-linejoin="round" stroke-miterlimit="1.5"><path fill="none" d="M0 0h64v64H0z"/><clipPath id="a"><path d="M0 0h64v64H0z"/></clipPath><g fill="none" clip-path="url(#a)"><path d="M2.032 11.821C2.399 7.999 5.829 5 10 5c1.024 0 2.003.181 2.903.51 2.552.924 5.399.491 7.56-1.151C22.385 2.867 24.838 2 27.5 2c5.889 0 10.75 4.244 11.421 9.706M9 32h9m6 0h9m-4-3.027L28 32l1 3.027m3-5.045L31 32l1 2.018m-19-5.045L14 32l-1 3.027m-3-5.045L11 32l-1 2.018m5 8.468l4.266-7.455m3.433-6L27 21.514m-4.598 1.981l2.098 2.388 3.098.64m-2.83-5.145L26 23.261l2.232.136m-13.83 14.08l3.098.64 2.098 2.388m-5.83.098l2.232.136 1.232 1.883M27 42.486l-4.345-7.594m-3.433-6L15 21.514m4.598 1.981L17.5 25.883l-3.098.64m2.83-5.145L16 23.261l-2.232.136m13.83 14.08l-3.098.64-2.098 2.388m5.83.098L26 40.739l-1.232 1.883" stroke="#000" stroke-width="2"/><ellipse cx="21" cy="32" rx="3" ry="3.027" stroke="#000" stroke-width="2"/><path d="M41 21.972V12H25.871M6.935 12H1v41h7m14.027 0H37m8-16h17" stroke="#000" stroke-width="2"/><circle cx="15" cy="54" r="7" stroke="#000" stroke-width="2"/><path d="M63 44h-5.5c-1.381 0-2.5 1.119-2.5 2.5s1.119 2.5 2.5 2.5H63m-28 0H24M6 49H1m41-23h15" stroke="#000" stroke-width="2"/><circle cx="15" cy="54" r="3" stroke="#000" stroke-width="2"/><circle cx="44" cy="54" r="7" stroke="#000" stroke-width="2"/><circle cx="44" cy="54" r="3" stroke="#000" stroke-width="2"/><path d="M26 10.5c0 2.484-2.24 4.5-5 4.5-1.298 0-2.481-.446-3.37-1.177C16.884 15.1 15.09 15.928 13 16c-4.504.156-6-3.568-6-5.5"/><path d="M26 10.5c0 2.484-2.24 4.5-5 4.5-1.298 0-2.481-.446-3.37-1.177C16.884 15.1 15.09 15.928 13 16c-4.504.156-6-3.568-6-5.5M52.032 53H63V38c0-.657-.162-1.303-.471-1.882-1.239-2.324-4.62-8.664-6.4-12C55.434 22.814 54.077 22 52.6 22H41v25" stroke="#000" stroke-width="2"/></g></svg>