<svg viewBox="0 0 64 64" xmlns="http://www.w3.org/2000/svg" fill-rule="evenodd" clip-rule="evenodd" stroke-linecap="round" stroke-linejoin="round" stroke-miterlimit="1.5"><path fill="none" d="M0 0h64v64H0z"/><clipPath id="a"><path d="M0 0h64v64H0z"/></clipPath><g fill="none" stroke="#000" stroke-width="2" clip-path="url(#a)"><path d="M50.969 27.986L63 16.851 46.967 1H15.934L1.005 16.851l16.964 16.784M1.238 16.851H63M22.605 29.496l-6.202-11.864m24.395 8.864l4.637-8.964"/><path d="M30.969 1L15.47 16.499 8.337 9.366M30.969 1l15.499 15.499m0 0l7.233-7.233M12.975 39.79l24.179 23.115L63 39.79 50.063 27H25.021L12.975 39.79zm.188 0H63M36.667 61.905L25.207 40.42m12.981 20.485L48.826 40.34"/><path d="M37.154 27L24.648 39.506l-5.756-5.756M37.154 27L49.66 39.506m0 0l5.836-5.836"/></g></svg>