<svg viewBox="0 0 64 64" xmlns="http://www.w3.org/2000/svg" xmlns:serif="http://www.serif.com/" fill-rule="evenodd" clip-rule="evenodd" stroke-linecap="round" stroke-linejoin="round" stroke-miterlimit="1.5"><path serif:id="discount" fill="none" d="M0 0h64v64H0z"/><g fill="none" stroke="#000" stroke-width="2"><path d="M50.825 14.747c1.561 1.561 1.561 4.096 0 5.657s-4.095 1.561-5.657 0c-1.561-1.561-1.561-4.096 0-5.657 1.562-1.561 4.096-1.561 5.657 0zm-21.92-.707l2.828 2.828m3.536 3.536l2.828 2.828m3.536 3.536l2.828 2.828m3.536 3.536l2.828 2.828m-8.485 0L29.612 23.232 11.934 40.91l12.728 12.728L42.34 35.96z"/><path d="M20.773 37.728c.781-.78 2.048-.78 2.829 0 .78.781.78 2.048 0 2.829-.781.78-2.048.78-2.829 0-.78-.781-.78-2.048 0-2.829zm9.9-1.414c.78-.781 2.048-.781 2.828 0 .781.78.781 2.048 0 2.828-.78.781-2.048.781-2.828 0-.781-.78-.781-2.048 0-2.828zm-3.536-4.95v14.142"/><path d="M55.944 32.256c.347-.347.554-.809.582-1.298.175-3.014.826-14.232 1.156-19.931.05-.856-.269-1.692-.875-2.297-.607-.605-1.443-.923-2.298-.872-5.693.34-16.89 1.008-19.896 1.187-.489.029-.949.236-1.295.582L2.742 40.203 25.369 62.83s26.449-26.448 30.575-30.574z"/><path d="M52.827 5.065c3.152-3.044 6.833-4.251 8.71-2.676 2.134 1.79 1.13 6.505-2.24 10.522-3.37 4.016-7.839 5.823-9.973 4.032-.336-.281-.594-.635-.777-1.047"/></g></svg>