<svg viewBox="0 0 64 64" xmlns="http://www.w3.org/2000/svg" fill-rule="evenodd" clip-rule="evenodd" stroke-linecap="round" stroke-linejoin="round" stroke-miterlimit="1.5"><path fill="none" d="M0 0h64v64H0z"/><g fill="none" stroke="#000" stroke-width="2"><path d="M22.292 29L8 56.015c1.701 2.657 5.343 3.789 9.017 3.372 1.263-.143 2.54.121 3.642.754 2.09 1.151 6 2.859 11.287 2.859 5.241 0 9.175-1.679 11.292-2.859 1.151-.647 2.483-.896 3.789-.71 3.603.56 7.155-.5 8.973-3.416L41.714 29M25 8V1l-5 1 2 8m17-2V1l5 1-2 8"/><path d="M40.913 24c-5.264 1.288-12.539 1.285-17.824 0-.946 1.386-1.276 2.719-.989 4 5.984 1.314 13.918 1.314 19.802 0 .284-1.356-.051-2.689-.989-4zM19 59l6-18m20 18l-6-18"/><path d="M40.245 23.999L42 10s-4.52-3-6.022-3c-.729 0-1.786.819-2.629 1.601-.768.709-1.952.706-2.717-.006C29.798 7.815 28.754 7 28.033 7 26.535 7 22 10 22 10l1.757 14.019"/></g></svg>