<svg viewBox="0 0 64 64" xmlns="http://www.w3.org/2000/svg" fill-rule="evenodd" clip-rule="evenodd" stroke-linecap="round" stroke-linejoin="round" stroke-miterlimit="1.5"><path fill="none" d="M0 0h64v64H0z"/><g fill="none" stroke="#000" stroke-width="2"><path d="M36 46v3.575c0 1.414.988 2.637 2.371 2.933 2.271.487 5.721 1.226 8.273 1.773 2.022.433 3.57 2.066 3.891 4.109.952 6.047-37.849 6.015-37.07 0 .265-2.051 1.869-3.676 3.891-4.109 2.552-.547 6.002-1.286 8.273-1.773C27.012 52.212 28 50.989 28 49.575V46"/><path d="M24.922 53.115c.282.199.587.387.916.563 1.481.792 3.455 1.322 6.09 1.322 3.479 0 5.808-.924 7.367-2.156m6.669-27.849c-.143-1.986-.707-3.907-1.641-5.64M43 36c2.208 0 3.408-1.873 4-4 1.138-4.087.196-7.288.196-7.288S45.03 25.321 43 28m-22.438 8c-2.207 0-3.407-1.873-4-4-.424-1.524-.56-2.926-.562-4.084m5-1.087V35.5c0 2.917 1.159 5.715 3.222 7.778C26.285 45.341 29.083 46.5 32 46.5c6.075 0 11-4.925 11-11v-10c-1.52-.241-3-1-9.008-1-1.136 0-2.128-.107-2.991-.281"/><path d="M41.844 11.842c-8.826 3.489-17.938 5.941-27.345 7.327-1.609 3.227-.39 6.009 1.111 8.479 10.762-1.803 19.219-4.682 29.378-8.479-.195-2.79-.428-5.225-3.144-7.327zm-.456.041C33.509-5.164 13.429-.422 10 14"/><path d="M10 14c2.713-.04 4.684-.92 6-2-.524 2.79-.298 4.262 0 6m11 12v2m10-2v2m-8 8c1.455.605 4.792.624 6 0m5 13c3.029 5.142-5.813 7.373-8 2m-8.374-2c-3.03 5.142 5.813 7.373 8 2"/></g></svg>