<svg viewBox="0 0 64 64" xmlns="http://www.w3.org/2000/svg" fill-rule="evenodd" clip-rule="evenodd" stroke-linecap="round" stroke-linejoin="round" stroke-miterlimit="1.5"><path fill="none" d="M0 0h64v64H0z"/><g fill="none" stroke="#000" stroke-width="2"><path d="M22.724 41.361L11.975 52.11m42.14-49.429L42.686 4.314l16.971 16.97 2.828-19.799-4.967.71m-20.221 14.71l15.241 4.084m1.224-5.616l-11.673-3.128m-14.15 14.179l15.114 4.05m4.553-4.992l-14.115-3.781M18.453 35.642l15.114 4.05M38.12 34.7l-14.114-3.782"/><path d="M56.121 17.749l-9.899-9.9-28.284 28.285 9.899 9.899 28.284-28.284zM1 63c12.157-7.864 22.867-11.267 37.798-13.345M16.482 22.132c-2.624 12.236-6.84 21.351-13.803 31.365m19.28-50.173l.361 6.892 6.667 1.787-6.444 2.473.361 6.893-4.343-5.364-6.444 2.474 3.759-5.789-4.343-5.364L18.2 9.112l3.759-5.788zm36.717 41.717L52.888 48.8l1.786 6.667-5.364-4.343-5.789 3.759 2.474-6.444-5.364-4.343 6.893.361 2.473-6.444 1.787 6.667 6.892.361z"/></g></svg>