<svg viewBox="0 0 64 64" xmlns="http://www.w3.org/2000/svg" fill-rule="evenodd" clip-rule="evenodd" stroke-linecap="round" stroke-linejoin="round" stroke-miterlimit="1.5"><path fill="none" d="M0 0h64v64H0z"/><g fill="none" stroke="#000" stroke-width="2"><path d="M54 10l-4-8H13l-4 8m49 12H24m-4 0H6M1 54h62v6H1zm17-25H7m8 5H6m9 5H7m8 5H6m9 5H6m51-20H46m11 5h-8.4m8.4 5h-8.4m8.4 5h-8.4m8.4 5h-8.4"/><path d="M58 22v32H48V36c0-6.075-4.925-11-11-11H27c-6.075 0-11 4.925-11 11v18m0 0H6V22H3V10h58v12h-3"/><path d="M33.723 40.571c2.461-2.457 2.776-5.428 2.776-5.428S41 43.12 41 48.107 36.873 54 32.899 54c-.241 0-.497-.012-.764-.035-.357.024-.704.035-1.036.035-3.975 0-8.473-.916-8.101-5.893.306-4.105 6.613-15.207 6.3-16.107 0 0 2.812 7.169 5.325 11.714M13 49v-5m40 5v-5m-2-5v-5m4 0v-5M11 39v-5M9 54v-5m13.828-35.828L20 16l2.828 2.828L25.657 16l-2.829-2.828zm10 0L30 16l2.828 2.828L35.657 16l-2.829-2.828zm10 0L40 16l2.828 2.828L45.657 16l-2.829-2.828z"/></g></svg>