<svg viewBox="0 0 64 64" xmlns="http://www.w3.org/2000/svg" fill-rule="evenodd" clip-rule="evenodd" stroke-linecap="round" stroke-linejoin="round" stroke-miterlimit="1.5"><path fill="none" d="M0 0h64v64H0z"/><path d="M3.619 45.619l15.18 15.18c.479.479 1.018.86 1.622 1.127-.868-.27-1.658-.749-2.329-1.42-3.872-3.871-9.564-9.563-13.435-13.435-.433-.432-.785-.914-1.038-1.452z" fill="#5ab947"/><path d="M28.225 52.787l-8.012 8.012m41.012-41.012l-8.012 8.012M3.95 44.536l8.012-8.013M36.95 11.536l8.012-8.013" fill="#ffd140" stroke="#000" stroke-width="2"/><path d="M45.669 2.816c-2.343-2.343-6.142-2.343-8.485 0L3.243 36.757c-2.344 2.344-2.344 6.142 0 8.486l15.556 15.556c2.343 2.343 6.142 2.343 8.485 0l33.941-33.941c2.344-2.343 2.344-6.142 0-8.485-4.38-4.381-11.176-11.176-15.556-15.557z" fill="none" stroke="#000" stroke-width="2"/><path d="M33.648 13.423L13.849 33.222l17.678 17.677 19.799-19.798-17.678-17.678zm-19.092 31.82l4.243 4.242m-4.243 0l4.243-4.242m30.759-23.688c.586-.586 1.536-.586 2.121 0 .586.585.586 1.535 0 2.121-.585.585-1.535.585-2.121 0-.585-.586-.585-1.536 0-2.121zM43.901 8.827c.586-.586 1.536-.586 2.122 0 .585.585.585 1.536 0 2.121-.586.585-1.536.585-2.122 0-.585-.585-.585-1.536 0-2.121zm-.707 6.364c.586-.586 1.536-.586 2.121 0 .586.585.586 1.536 0 2.121-.585.585-1.535.585-2.121 0-.585-.585-.585-1.536 0-2.121zm7.071 0c.586-.586 1.536-.586 2.122 0 .585.585.585 1.536 0 2.121-.586.585-1.536.585-2.122 0-.585-.585-.585-1.536 0-2.121z" fill="none" stroke="#000" stroke-width="2"/></svg>