<svg viewBox="0 0 64 64" xmlns="http://www.w3.org/2000/svg" fill-rule="evenodd" clip-rule="evenodd" stroke-linecap="round" stroke-linejoin="round" stroke-miterlimit="1.5"><path fill="none" d="M0 0h64v64H0z"/><clipPath id="a"><path d="M0 0h64v64H0z"/></clipPath><g fill="none" stroke="#000" stroke-width="2" clip-path="url(#a)"><path d="M55.975 42.411c2.429-.516 4.866 1.249 5.898 6.107 1.033 4.858.274 10.982-2.156 11.499-2.429.516-5.614-4.77-6.646-9.628-1.033-4.858.475-7.461 2.904-7.978z"/><path d="M58.052 42.561l-.832-3.912-3.912.831.831 3.913M1 6.039c2.638.258 6.002.534 9.816.757m4.144.211C31.092 7.703 52.722 7.174 63 1m0 34.039C37.505 37.302 16.809 39.494 1 26m29.24 18.577c2.482.086 4.419 2.388 4.246 7.352-.174 4.964-2.392 10.722-4.874 10.635-2.482-.086-4.294-5.985-4.12-10.949.173-4.964 2.266-7.125 4.748-7.038z"/><path d="M32.219 45.224l.139-3.997-3.997-.14-.14 3.998M25.24 14.577c2.482.086 4.419 2.388 4.246 7.352-.174 4.964-2.392 10.722-4.874 10.635-2.482-.086-4.294-5.985-4.12-10.949.173-4.964 2.266-7.125 4.748-7.038z"/><path d="M27.219 15.224l.139-3.997-3.997-.14-.14 3.998m28.574-2.323c2.459-.346 4.766 1.585 5.457 6.503.692 4.919-.493 10.975-2.952 11.321-2.46.345-5.268-5.15-5.959-10.068-.692-4.919.994-7.41 3.454-7.756z"/><path d="M53.856 13.056l-.557-3.961-3.961.557.557 3.961M6.842 39.015c2.459.345 4.145 2.837 3.454 7.755-.691 4.919-3.499 10.414-5.959 10.068-2.459-.345-3.644-6.402-2.953-11.32.692-4.919 2.999-6.849 5.458-6.503z"/><path d="M8.742 39.866l.557-3.961-3.961-.557-.557 3.961"/></g></svg>