<svg viewBox="0 0 64 64" xmlns="http://www.w3.org/2000/svg" fill-rule="evenodd" clip-rule="evenodd" stroke-linecap="round" stroke-linejoin="round" stroke-miterlimit="1.5"><path fill="none" d="M0 0h64v64H0z"/><clipPath id="a"><path d="M0 0h64v64H0z"/></clipPath><g fill="none" stroke="#000" stroke-width="2" clip-path="url(#a)"><path d="M4 31v32h56V31m-19.001 0H63V16H1v15h8m15 0H14m26-15v-3c0-1.326-.527-2.598-1.464-3.536C37.598 8.527 36.326 8 35 8h-6c-1.326 0-2.598.527-3.536 1.464C24.527 10.402 24 11.674 24 13v3"/><path d="M3.282 16s-2.433-14.782 7-15c8.702-.201 13.784 7.064 14.807 8.683M60.808 16s2.432-14.782-7-15C45.105.799 40.023 8.064 39 9.683M40 16H24v31l7.908-5L40 47V16zm-16-3c-6.22-.576-10.175-3.398-12-7m28 7c6.22-.576 10.175-3.398 12-7M40 38h20M4 38h20m16 5h20M4 43h20M4 51h56M4 56h56"/></g></svg>