<svg viewBox="0 0 64 64" xmlns="http://www.w3.org/2000/svg" fill-rule="evenodd" clip-rule="evenodd" stroke-linecap="round" stroke-linejoin="round" stroke-miterlimit="1.5"><path fill="none" d="M0 0h64v64H0z"/><clipPath id="a"><path d="M0 0h64v64H0z"/></clipPath><g clip-path="url(#a)"><path d="M23.662 17.965c.428.068.851-.147 1.048-.532.197-.386.124-.854-.181-1.161C22.942 14.697 22 12.497 22 10.076 22 5.067 26.033 1 31 1s9 4.067 9 9.076c0 2.426-.945 4.63-2.484 6.259-.283.283-.351.716-.169 1.072.182.356.573.554.968.491 4.48-.646 10.639-1.641 10.639-1.641 1.759-.284 3.553.224 4.909 1.389C55.219 18.812 56 20.519 56 22.316v.003c0 2.824-2.034 5.23-4.799 5.676l-8.576 1.384 2.347 27.058c.285 3.287-2.1 6.196-5.355 6.531-.001 0-.002 0-.003.001-1.603.165-3.205-.325-4.446-1.361-1.242-1.035-2.02-2.529-2.161-4.148 0 0-.506-5.842-1.011-11.655-.045-.517-.477-.913-.996-.913s-.951.396-.996.913c-.505 5.813-1.011 11.655-1.011 11.655-.141 1.619-.919 3.113-2.161 4.148-1.241 1.036-2.843 1.526-4.446 1.361-.001-.001-.002-.001-.003-.001-3.255-.335-5.64-3.244-5.355-6.531l2.347-27.058-8.574-1.384C8.035 27.549 6 25.142 6 22.317v-.002c0-1.797.781-3.504 2.137-4.67 1.355-1.166 3.15-1.674 4.909-1.391 0 0 6.163.993 10.616 1.711z" fill="none" stroke="#000" stroke-width="2"/><circle cx="31" cy="26" r="2" fill="none" stroke="#000" stroke-width="2"/><circle cx="31" cy="35" r="2" fill="none" stroke="#000" stroke-width="2"/><circle cx="28" cy="8" r="1"/><circle cx="34" cy="8" r="1"/><path d="M28 13c2.673.855 3.368.85 6 0m-21.182 4L11 27m38-10l1.818 10M18 53l11 1.435M18 57l10 1.304M44 53l-11 1.435M44 57l-10 1.304" fill="none" stroke="#000" stroke-width="2"/></g></svg>