<svg viewBox="0 0 64 64" xmlns="http://www.w3.org/2000/svg" fill-rule="evenodd" clip-rule="evenodd" stroke-linecap="round" stroke-linejoin="round" stroke-miterlimit="1.5"><path fill="none" d="M0 0h64v64H0z"/><clipPath id="a"><path d="M0 0h64v64H0z"/></clipPath><g fill="none" stroke="#000" stroke-width="2" clip-path="url(#a)"><path d="M29.373 42H17l6.469-9h-4.936l6.407-9h-4.873L28.5 12l4.905 6.98"/><path d="M31.004 43.709C29.161 42.061 28 39.665 28 37c0-3.672 2.203-6.833 5.359-8.232C31.925 27.671 31 25.943 31 24c0-3.311 2.689-6 6-6s6 2.689 6 6c0 1.943-.925 3.671-2.359 4.768C43.797 30.167 46 33.328 46 37c0 1.874-.574 3.615-1.556 5.057-.096.141-.196.279-.299.414M12 45c2.08-.484 4.944-.689 7 1"/><circle cx="47.5" cy="17.5" r="1.5"/><circle cx="15.5" cy="36.5" r="1.5"/><circle cx="13.5" cy="24.5" r="1.5"/><circle cx="22.5" cy="13.5" r="1.5"/><circle cx="50.5" cy="33.5" r="1.5"/><circle cx="35.5" cy="7.5" r="1.5"/><path d="M35 22v1m4-1v1m-3 3h2M25 42v4m-3 2c4.591-3.052 11.274-5.733 16.016-4.009 1.158.453 2.463.327 3.514-.339C45.05 41.403 48.446 42.201 52 45"/><path d="M19.005 51.8C10.66 47.193 5 38.289 5 28.07 5 13.13 17.098 1 32 1s27 12.13 27 27.07C59 38.439 53.173 47.454 44.626 52m.874 0h-27l-4 11h35l-4-11zM44 31l3-3m-17 3l-3-3"/></g></svg>