<svg viewBox="0 0 64 64" xmlns="http://www.w3.org/2000/svg" fill-rule="evenodd" clip-rule="evenodd" stroke-linecap="round" stroke-linejoin="round" stroke-miterlimit="1.5"><path fill="none" d="M0 0h64v64H0z"/><clipPath id="a"><path d="M0 0h64v64H0z"/></clipPath><g fill="none" stroke="#000" stroke-width="2" clip-path="url(#a)"><path d="M10.318 48H4.125c-.829 0-1.624.316-2.21.879C1.329 49.441 1 50.204 1 51v9c0 .796.329 1.559.915 2.121.586.563 1.381.879 2.21.879h43.75c.829 0 1.624-.316 2.21-.879.586-.562.915-1.325.915-2.121v-9c0-.796-.329-1.559-.915-2.121-.586-.563-1.381-.879-2.21-.879H9.627m41.529-27.052C52.414 19.742 54.121 19 56 19c3.863 0 7 3.137 7 7s-3.137 7-7 7-7-3.137-7-7c0-.523.058-1.033.167-1.524m6.821-5.955C43.502-12.16-.214-2.191 4.046 48m15.038-37.192c-.722.652-2.481 2.557-2.678 2.794m-1.588 2.097c-1.97 2.857-3.583 6.241-4.771 10.154"/><path d="M48.704 48c.222-7.866-2.279-19.763-6.848-25.163 3.051 2.261 4.642 2.602 7.156 2.559M48 43H32m-4 0h-3"/></g></svg>