<svg viewBox="0 0 64 64" xmlns="http://www.w3.org/2000/svg" fill-rule="evenodd" clip-rule="evenodd" stroke-linecap="round" stroke-linejoin="round" stroke-miterlimit="1.5"><path fill="none" d="M0 0h64v64H0z"/><clipPath id="a"><path d="M0 0h64v64H0z"/></clipPath><g fill="none" stroke="#000" stroke-width="2" clip-path="url(#a)"><path d="M32 11.8C38.526-1 51.579-1 58.105 5.4c6.527 6.4 6.527 19.2 0 32C53.537 47 41.789 56.6 32 63m0-51.2C25.474-1 12.421-1 5.895 5.4c-6.527 6.4-6.527 19.2 0 32C10.463 47 22.211 56.6 32 63M20 31h8.062m7 0H44"/><path d="M40 27.973L39 31l1 3.027m3-5.045L42 31l1 2.018m-19-5.045L25 31l-1 3.027m-3-5.045L22 31l-1 2.018m5 8.468l4.332-7.57m3.433-6L38 20.514m-4.598 1.981l2.098 2.388 3.098.64m-2.83-5.145L37 22.261l2.232.136m-13.83 14.08l3.098.64 2.098 2.388m-5.83.098l2.232.136 1.232 1.883M38 41.486l-4.248-7.425m-3.433-6L26 20.514m4.598 1.981L28.5 24.883l-3.098.64m2.83-5.145L27 22.261l-2.232.136m13.83 14.08l-3.098.64-2.098 2.388m5.83.098L37 39.739l-1.232 1.883"/><ellipse cx="32" cy="31" rx="3" ry="3.027"/><path d="M6.268 18.208c.525-3.556 1.818-6.647 3.879-9.015"/></g></svg>