<svg viewBox="0 0 64 64" xmlns="http://www.w3.org/2000/svg" fill-rule="evenodd" clip-rule="evenodd" stroke-linecap="round" stroke-linejoin="round" stroke-miterlimit="1.5"><path fill="none" d="M0 0h64v64H0z"/><clipPath id="a"><path d="M0 0h64v64H0z"/></clipPath><g clip-path="url(#a)"><path d="M3 26v28m58 5V26M9.088 22H1v4h8.518M23 41c0-1.591-.632-3.117-1.757-4.243C20.117 35.632 18.591 35 17 35c-3.314 0-6 2.686-6 6v6h12v-6zM8 47h4M24 8V1h-8v7m1 27v12m-6-6h12M2.185 59.044C2.064 58.549 2 58.032 2 57.5 2 53.913 4.913 51 8.5 51c1.733 0 3.309.68 4.475 1.787 1.179 1.144 2.847 1.632 4.457 1.304.347-.055.703-.091 1.068-.091 2.821 0 5.149 2.129 5.464 4.867" fill="none" stroke="#000" stroke-width="2"/><path fill="none" d="M1 59h62v4H1z"/><path fill="none" stroke="#000" stroke-width="2" d="M1 59h62v4H1zm34.21-37H25v3.5c0 .663-.263 1.299-.732 1.768-.469.469-1.105.732-1.768.732s-1.299-.263-1.768-.732C20.263 26.799 20 26.163 20 25.5V22h-4v4c0 .796-.316 1.559-.879 2.121-.562.563-1.325.879-2.121.879s-1.559-.316-2.121-.879C10.316 27.559 10 26.796 10 26v-4H2L8 8h1.171C9.583 6.835 10.695 6 12 6c1.305 0 2.417.835 2.829 2h12.588c.772-1.765 2.534-3 4.583-3 1.995 0 3.718 1.171 4.52 2.862C37.202 7.322 38.064 7 39 7c1.013 0 1.939.378 2.645 1h3.114c.807-1.206 2.182-2 3.741-2 1.559 0 2.934.794 3.741 2H56l6 14H48.566"/><path d="M52.077 26H63v-4H48.049" fill="none" stroke="#000" stroke-width="2"/><path fill="none" d="M29 55h26v4H29z"/><path d="M48 55V41c0-1.591-.632-3.117-1.757-4.243C45.117 35.632 43.591 35 42 35c-3.314 0-6 2.686-6 6v1.002m0 3.9V55m-5-22v22m22 0V33M22 47h4" fill="none" stroke="#000" stroke-width="2"/><circle cx="40" cy="45" r="1" fill="#f73b2f" stroke="#000" stroke-width="2"/><path d="M42.004 16.349v-.001s11.131 10.767 15.164 14.668c.793.767.815 2.033.048 2.827 0 0-.001 0-.001.001-.768.794-2.034.816-2.828.049-3.539-3.418-12.383-11.958-12.383-11.958s-8.815 8.512-12.348 11.924c-.382.368-.894.57-1.424.561-.531-.009-1.036-.229-1.404-.611 0 0-.001 0-.001-.001-.767-.794-.745-2.059.048-2.827 4.026-3.894 15.129-14.632 15.129-14.632zM29 55h26v4H29zM16 26h4m5 0h7" fill="none" stroke="#000" stroke-width="2"/></g></svg>