<svg viewBox="0 0 64 64" xmlns="http://www.w3.org/2000/svg" fill-rule="evenodd" clip-rule="evenodd" stroke-linecap="round" stroke-linejoin="round" stroke-miterlimit="1.5"><path fill="none" d="M0 0h64v64H0z"/><clipPath id="a"><path d="M0 0h64v64H0z"/></clipPath><g fill="none" stroke="#000" stroke-width="2" clip-path="url(#a)"><path d="M29.75 16.75L20 7l1.948-1.948m2.026-2.026L26 1h12l6 6-9.983 9.983M25 7h19M18.239 21.574C22.077 18.702 26.841 17 32 17c12.694 0 23 10.306 23 23S44.694 63 32 63 9 52.694 9 40c0-5.869 2.203-11.227 5.826-15.293"/><circle cx="32" cy="40" r="17.116"/><path d="M37 7l-5-6-5 6m10 0l-5 10-5-10"/></g></svg>