<svg viewBox="0 0 64 64" xmlns="http://www.w3.org/2000/svg" fill-rule="evenodd" clip-rule="evenodd" stroke-linecap="round" stroke-linejoin="round" stroke-miterlimit="1.5"><path fill="none" d="M0 0h64v64H0z"/><clipPath id="a"><path d="M0 0h64v64H0z"/></clipPath><g fill="none" stroke="#000" stroke-width="2" clip-path="url(#a)"><path d="M61 11c0-.53-.211-1.039-.586-1.414S59.53 9 59 9H5c-.53 0-1.039.211-1.414.586S3 10.47 3 11v39h58V11zm2 39H1v2c0 1.326.527 2.598 1.464 3.536C3.402 56.473 4.674 57 6 57h52c1.326 0 2.598-.527 3.536-1.464C62.473 54.598 63 53.326 63 52v-2z"/><path d="M13.005 13H7v33h50V13H16.972M24 50c0 2.209 1.791 4 4 4h8c2.209 0 4-1.791 4-4M23.5 21.515L28.985 27m6 6l5.486 5.485m-16.971 0l5.398-5.398m6-6l5.573-5.572M31.985 42v-7.938m0-9V18m12 12h-7.214m-9.076 0h-7.71"/><path d="M29.157 27.172c1.561-1.561 4.096-1.561 5.657 0s1.561 4.095 0 5.656-4.096 1.561-5.657 0-1.561-4.095 0-5.656zm-7.071-2.829h4.242v-4.242m12.021 20.506v-4.243h4.243m-21.213 0h4.242v4.243m12.728-21.214v4.243h4.243M29.015 18l3 3 3-3m0 24l-3-3-3 3m-9-9l3-3-3-3m24 6l-3-3 3-3"/></g></svg>