<svg viewBox="0 0 64 64" xmlns="http://www.w3.org/2000/svg" fill-rule="evenodd" clip-rule="evenodd" stroke-linecap="round" stroke-linejoin="round" stroke-miterlimit="1.5"><path fill="none" d="M0 0h64v64H0z"/><clipPath id="a"><path d="M0 0h64v64H0z"/></clipPath><g fill="none" stroke="#000" stroke-width="2" clip-path="url(#a)"><path d="M63 12c0-1.105-.895-2-2-2H3c-1.105 0-2 .895-2 2v38c0 1.105.895 2 2 2h58c1.105 0 2-.895 2-2V12z"/><path d="M7 15.226L32 37l25-21.774M47 38h10v8H47zM7 46h11M7 42h13M7 38h9"/></g></svg>