<svg viewBox="0 0 64 64" xmlns="http://www.w3.org/2000/svg" fill-rule="evenodd" clip-rule="evenodd" stroke-linecap="round" stroke-linejoin="round" stroke-miterlimit="1.5"><path fill="none" d="M0 0h64v64H0z"/><g fill="none" stroke="#000" stroke-width="2"><path d="M37.602 56.573c.234-.469.398-.924.398-1.279 0-1.238-2-2.478-2-3.722 0-1.244 2-2.504 2-3.741 0-1.236-2-2.462-2-3.677 0-1.215 2-2.399 2-3.615 0-1.215-2-2.431-2-3.678 0-1.246 2-2.543 2-3.803 0-1.259-2-2.501-2-3.753 0-1.251 2-2.526 2-3.754 0-.793-.833-1.559-1.424-2.331m6.88 33.632c.309-.565.544-1.134.544-1.558 0-1.238-2-2.478-2-3.722 0-1.244 2-2.504 2-3.741 0-1.236-2-2.462-2-3.677 0-1.215 2-2.399 2-3.615 0-1.215-2-2.431-2-3.678 0-1.246 2-2.543 2-3.803 0-1.259-2-2.501-2-3.753 0-1.251 2-2.526 2-3.754 0-.782-.811-1.538-1.4-2.299M13 24c0-1.105-.895-2-2-2H3c-1.105 0-2 .895-2 2v29c0 1.105.895 2 2 2h8c1.105 0 2-.895 2-2V24z"/><path d="M17.769 19.821c.776-.518 1.267-1.367 1.329-2.297.174-2.597.534-8.005.743-11.138C19.93 5.043 21.046 4 22.391 4h.003c2.282 0 4.471.907 6.085 2.521C30.093 8.135 31 10.324 31 12.606V20c0 .796.316 1.559.879 2.121.562.563 1.325.879 2.121.879h22.99c1.753 0 3.418.767 4.558 2.099 1.14 1.331 1.64 3.095 1.37 4.827-.941 6.02-3.281 15.6-4.125 21-.457 2.921-3.017 4.564-5.928 5.074-12.139 2.128-40.699-.436-39.865-2V23s3.013-2.009 4.769-3.179z"/></g></svg>