<svg viewBox="0 0 64 64" xmlns="http://www.w3.org/2000/svg" fill-rule="evenodd" clip-rule="evenodd" stroke-linecap="round" stroke-linejoin="round" stroke-miterlimit="1.5"><path fill="none" d="M0 0h64v64H0z"/><path d="M25.841 52.258l4.314 6.643m3.733-5.268l-4.314-6.643m3.156-5.756l4.314 6.642m3.733-5.267l-4.582-7.056M26.39 20.454l-4.214-6.488m3.156-5.757l4.426 6.815m9.798 15.088l4.377 6.74m3.733-5.268l-4.531-6.977M33.319 9.491l-3.604-5.55m24.191 15.618L42.448 1.916m-6.98.268l4.56 7.022m6.258 9.637l4.536 6.984m.837-.301c2.249-3.598 2.976-7.943 2.021-12.078-.955-4.134-3.513-7.721-7.111-9.969C42.97 1.23 38.626.503 34.491 1.458c-4.135.954-7.721 3.512-9.97 7.111-1.775 2.841-3.493 5.59-4.769 7.632-1.171 1.874-.601 4.341 1.273 5.512l.057.036c.9.562 1.986.744 3.02.506 1.034-.239 1.93-.879 2.492-1.778 1.353-2.165 3.153-5.046 4.789-7.663 2.33-3.73 7.244-4.865 10.974-2.534.001.001.002.002.003.002 3.73 2.331 4.864 7.244 2.534 10.974-6.158 9.855-17.379 27.812-22.042 35.274-1.171 1.874-.601 4.342 1.272 5.512.9.562 1.986.744 3.02.506 1.033-.239 1.93-.879 2.492-1.778 4.375-7.001 14.613-23.385 22.023-35.244z" fill="none" stroke="#000" stroke-width="2"/></svg>