<svg viewBox="0 0 64 64" xmlns="http://www.w3.org/2000/svg" fill-rule="evenodd" clip-rule="evenodd" stroke-linecap="round" stroke-linejoin="round" stroke-miterlimit="1.5"><path fill="none" d="M0 0h64v64H0z"/><clipPath id="a"><path d="M0 0h64v64H0z"/></clipPath><g fill="none" stroke="#000" stroke-width="2" clip-path="url(#a)"><path d="M26.895 36.576l-4.029 7.908m-1.868 3.667l-6.466 12.69c-.192.377.051.887.543 1.137l1.782.908c.492.251 1.047.148 1.239-.229l12.363-24.265M45.614 3.465c-7.04 5.589-14.955 11.167-8.626 16.929m-7.995 17.251c7.039-5.589 14.954-11.167 8.626-16.929m-17.405-8.472c5.589 7.04 11.166 14.955 16.929 8.626m17.25 7.996c-5.589-7.04-11.167-14.955-16.929-8.626M31.066 2.916c-.249 2.133-.523 4.29-.677 6.331m-.118 3.366c.085 4.748 1.508 8.192 6.715 7.948m6.545 17.852c1.025-8.93 2.678-18.471-5.872-18.07"/><path d="M19.641 26.79c8.812 1.026 18.063 2.504 17.669-5.918m17.851-6.544c-8.93-1.026-18.47-2.679-18.07 5.871"/><path d="M45.929 3.626c9.344 4.761 13.064 16.211 8.303 25.555-4.76 9.343-16.211 13.064-25.555 8.303-9.343-4.761-13.064-16.211-8.303-25.555 4.761-9.343 16.212-13.064 25.555-8.303z"/></g></svg>