<svg viewBox="0 0 64 64" xmlns="http://www.w3.org/2000/svg" fill-rule="evenodd" clip-rule="evenodd" stroke-linecap="round" stroke-linejoin="round" stroke-miterlimit="1.5"><path fill="none" d="M0 0h64v64H0z"/><g fill="none" stroke="#000" stroke-width="2"><path d="M28.016 5.444c1.246-1.003 2.504-2.476 3.278-3.447.188-.233.471-.369.77-.37.3-.001.584.132.774.363.769.92 2.035 2.301 3.471 3.331 1.462 1.048 3.499 1.782 4.951 2.213.964.296 1.552 1.269 1.366 2.26-.398 1.83-.885 4.621-.568 6.206.318 1.593 1.855 3.998 2.928 5.534.562.855.38 1.997-.419 2.636-.344.298-.622.521-.622.521m-24.171.026s-.219-.219-.5-.501c-.681-.681-.78-1.75-.235-2.545 1.089-1.482 2.693-3.931 3.019-5.671.302-1.613-.138-4.239-.526-6.04-.193-1.048.479-2.061 1.519-2.292.655-.141 1.416-.352 2.198-.658M32 28V10m-4 8l4 4 4-4m-9.198 31.939l1.876 4.014s-.027.309-.062.706c-.084.959-.84 1.722-1.798 1.815-1.836.119-4.743.465-6.285 1.333-1.43.805-3.159 2.83-4.289 4.285-.679.822-1.887.959-2.733.31-1.043-.812-2.56-1.764-4.283-2.232-1.646-.446-3.95-.473-5.359-.438-.299.006-.585-.123-.779-.352-.193-.228-.273-.531-.219-.825.211-1.181.455-3.039.321-4.8-.137-1.794-.884-3.826-1.488-5.216-.392-.929-.025-2.004.853-2.499 1.659-.871 4.11-2.292 5.12-3.554 1.016-1.268 1.87-3.991 2.357-5.8.294-.98 1.285-1.575 2.289-1.374.449.073.799.143.799.143l1.012.694m7.479 7.774L9.546 54.048"/><path d="M18.245 51.97l.493-5.636-5.635-.493m23.706 5.412l-.849 1.818-.412.882s.027.309.061.706c.085.959.84 1.722 1.799 1.815 1.836.119 4.742.465 6.285 1.333 1.43.805 3.159 2.83 4.289 4.285.679.822 1.886.959 2.732.31 1.044-.812 2.56-1.764 4.284-2.232 1.646-.446 3.95-.473 5.359-.438.299.006.585-.123.778-.352.194-.228.274-.531.219-.825-.21-1.181-.454-3.039-.32-4.8.137-1.794.884-3.826 1.487-5.216.393-.929.026-2.004-.853-2.499-1.658-.871-4.109-2.292-5.119-3.554-1.016-1.268-1.871-3.991-2.357-5.8-.294-.98-1.286-1.575-2.289-1.374-.449.073-.799.143-.799.143l-1.024.702-.377.258M37.595 49.571l-.786 1.682m5.602-7.5L54.68 54.048"/><path d="M45.98 51.97l-.493-5.636 5.636-.493m-29.499-2.125C17.25 42.648 14 38.701 14 34c0-5.519 4.481-10 10-10 3.282 0 6.198 1.585 8.021 4.03m.039-.107C33.889 25.538 36.766 24 40 24c5.519 0 10 4.481 10 10 0 4.604-3.118 8.485-7.355 9.646"/><path d="M27.103 30.149C28.578 29.414 30.241 29 32 29c6.071 0 11 4.929 11 11s-4.929 11-11 11-11-4.929-11-11c0-2.779 1.032-5.318 2.734-7.255"/></g></svg>