<svg viewBox="0 0 64 64" xmlns="http://www.w3.org/2000/svg" fill-rule="evenodd" clip-rule="evenodd" stroke-linecap="round" stroke-linejoin="round" stroke-miterlimit="1.5"><path fill="none" d="M0 0h64v64H0z"/><clipPath id="a"><path d="M0 0h64v64H0z"/></clipPath><g fill="none" stroke="#000" stroke-width="2" clip-path="url(#a)"><path d="M10 40s2.468 2 3.706 2 2.478-2 3.722-2c1.244 0 2.504 2 3.741 2 1.236 0 2.462-2 3.677-2 1.215 0 2.399 2 3.615 2 1.215 0 2.431-2 3.678-2 1.246 0 2.543 2 3.803 2 1.259 0 2.501-2 3.753-2 1.251 0 2.526 2 3.754 2 1.228 0 2.392-2 3.614-2s2.887 1.333 3.72 2M10 46s2.468 2 3.706 2 2.478-2 3.722-2c1.244 0 2.504 2 3.741 2 1.236 0 2.462-2 3.677-2 1.215 0 2.399 2 3.615 2 1.215 0 2.431-2 3.678-2 1.246 0 2.543 2 3.803 2 1.259 0 2.501-2 3.753-2 1.251 0 2.526 2 3.754 2 1.228 0 2.392-2 3.614-2 .306 0 .641.115.983.29M10 18s2.468 2 3.706 2 2.478-2 3.722-2c1.244 0 2.504 2 3.741 2 1.236 0 2.462-2 3.677-2 1.215 0 2.399 2 3.615 2 1.215 0 2.431-2 3.678-2 1.246 0 2.543 2 3.803 2 1.259 0 2.501-2 3.753-2 1.251 0 2.92 1.333 3.754 2M10 24s2.468 2 3.706 2 2.478-2 3.722-2c1.244 0 2.504 2 3.741 2 1.236 0 2.462-2 3.677-2 1.215 0 2.399 2 3.615 2 1.215 0 2.431-2 3.678-2 1.246 0 2.543 2 3.803 2 1.259 0 2.501-2 3.753-2 1.251 0 2.92 1.333 3.754 2M14 56c-1.265 2.389-1.204 4.5-.294 6.433.166.341.512.558.892.558C18.099 63 35.905 63 39.403 63c.384 0 .735-.219.902-.565.992-2.116.958-4.258-.305-6.435"/><path d="M16 56c-3.314 0-6-2.686-6-6V18c0-9.389 7.611-17 17-17s17 7.611 17 17v13l3.197-5.806c1.656-2.868 5.325-3.851 8.194-2.195l.001.001c1.378.796 2.384 2.106 2.796 3.643.412 1.537.196 3.175-.6 4.553-3.374 5.845-9.823 15.282-13.197 21.126-.677 1.174-1.692 2.032-2.851 2.523C40.548 55.571 39.324 56 38 56H20.947"/></g></svg>