<svg viewBox="0 0 64 64" xmlns="http://www.w3.org/2000/svg" fill-rule="evenodd" clip-rule="evenodd" stroke-linecap="round" stroke-linejoin="round" stroke-miterlimit="1.5"><path fill="none" d="M0 0h64v64H0z"/><clipPath id="a"><path d="M0 0h64v64H0z"/></clipPath><g fill="none" stroke="#000" stroke-width="2" clip-path="url(#a)"><path d="M29 14h6v5h-6z"/><path d="M29 14h6v5h-6zm-7.968 45.018C18.023 55.988 13 54.914 13 46c0-14 9.873-24.767 16.319-27m13.968 40.018c3.009-3.03 8.032-4.153 8.032-13.018 0-14-9.873-24.767-16.319-27M21 59.018V63h22v-3.982m0 0H21M9.333 3.165c3.247-.649 6.63 2.558 7.55 7.158.921 4.6-.968 8.862-4.216 9.512-3.247.649-6.63-2.558-7.55-7.158-.921-4.6.968-8.862 4.216-9.512zM13 20c6.506 6.802 7.091-3.269 16-1"/><path d="M40 33c0-.53-.211-1.039-.586-1.414S38.53 31 38 31H26c-.53 0-1.039.211-1.414.586S24 32.47 24 33v16c0 .53.211 1.039.586 1.414S25.47 51 26 51h12c.53 0 1.039-.211 1.414-.586S40 49.53 40 49V33zm-3.35 2l-1.565 1.998m-2.252 2.874L27.25 47m9.8-6.128L32.25 47M32 1c3.863 0 7 3.137 7 7 0 2.529-1.344 4.746-3.355 5.976-.007.004-7.27.013-7.307-.011C26.336 12.733 25 10.521 25 8c0-3.863 3.137-7 7-7z"/></g></svg>