<svg viewBox="0 0 64 64" xmlns="http://www.w3.org/2000/svg" fill-rule="evenodd" clip-rule="evenodd" stroke-linecap="round" stroke-linejoin="round" stroke-miterlimit="1.5"><path fill="none" d="M0 0h64v64H0z"/><clipPath id="a"><path d="M0 0h64v64H0z"/></clipPath><g fill="none" stroke="#000" stroke-width="2" clip-path="url(#a)"><path d="M46 16.873V15c0-3.713-1.475-7.274-4.101-9.899C39.274 2.475 35.713 1 32 1c-3.713 0-7.274 1.475-9.9 4.101C19.475 7.726 18 11.287 18 15v2.095M36 35v3.575c0 1.414.988 2.637 2.371 2.933 2.271.487 5.721 1.226 8.273 1.773 2.022.433 3.569 2.066 3.891 4.109C51.398 52.854 53 63 53 63H11s1.602-10.146 2.465-15.61c.322-2.043 1.869-3.676 3.891-4.109 2.552-.547 6.002-1.286 8.273-1.773C27.012 41.212 28 39.989 28 38.575V35m-8 28v-7m24 7v-7"/><path d="M21 25c-2.208 0-4-1.792-4-4s1.792-4 4-4m22 8c2.208 0 4-1.792 4-4s-1.792-4-4-4M27 41l5 4 5-4m-14 2l4 7 5-5m9-2l-4 7-5-5m0 0v8m11-38.5c-1.52-.241-3-1-9.008-1-6.007 0-8.004-3-8.004-3-1.088 1.626-3.504 3.948-4.988 4v10c0 2.917 1.159 5.715 3.222 7.778C26.285 34.341 29.083 35.5 32 35.5c6.075 0 11-4.925 11-11v-10zM27 20v2m10-2v2m-8 8c1.455.605 4.792.624 6 0"/></g></svg>