<svg viewBox="0 0 64 64" xmlns="http://www.w3.org/2000/svg" fill-rule="evenodd" clip-rule="evenodd" stroke-linecap="round" stroke-linejoin="round" stroke-miterlimit="1.5"><path fill="none" d="M0 0h64v64H0z"/><g fill="none" stroke="#000" stroke-width="2"><path d="M36 46v3.575c0 1.414.988 2.637 2.371 2.933 2.271.487 5.721 1.226 8.273 1.773 2.022.433 3.611 2.06 3.891 4.109.822 6.009-37.974 6.009-37.07 0 .307-2.045 1.869-3.676 3.891-4.109 2.552-.547 6.002-1.286 8.273-1.773C27.012 52.212 28 50.989 28 49.575V46"/><path d="M21 28.153V35.5c0 2.917 1.159 5.715 3.222 7.778C26.285 45.341 29.083 46.5 32 46.5s5.715-1.159 7.778-3.222C41.841 41.215 43 38.417 43 35.5v-7s-3.901 1.65-8.271-.636c-1.397-.731-2.472-1.6-3.292-2.456M27 32v2m10-2v2M23 53.209C24.397 55.159 27.017 57 31.928 57c4.875 0 7.492-1.814 8.896-3.749"/><path d="M36.417 49s5.811-.549 8.821-.834c1.006-.095 1.783-.925 1.811-1.935.094-3.371.306-11.023.507-18.239.072-2.592-.505-5.133-1.645-7.408m-29.446 8.171c.194 6.986.395 14.222.486 17.475.028 1.01.806 1.841 1.812 1.936 3.025.284 8.882.834 8.882.834"/><path d="M42.844 12.842c-8.826 3.489-17.938 5.941-27.345 7.327-1.609 3.227-1.39 6.009.111 8.479 10.762-1.803 21.219-4.61 31.378-8.407-.195-2.791-1.428-5.297-4.144-7.399zm-.456.041C35.256-3.755 10.98-2.234 6 14"/><circle cx="5.5" cy="19.5" r="4.5"/><path d="M10 17c3.272-1.02 5.306-1.893 7-4-.524 2.79-.298 4.262 0 6m12 22c1.455.605 4.792.624 6 0"/></g></svg>