<svg viewBox="0 0 64 64" xmlns="http://www.w3.org/2000/svg" fill-rule="evenodd" clip-rule="evenodd" stroke-linecap="round" stroke-linejoin="round" stroke-miterlimit="1.5"><path fill="none" d="M0 0h64v64H0z"/><g fill="none" stroke="#000" stroke-width="2"><path d="M37 46v3.575c0 1.414.988 2.637 2.371 2.933 2.271.487 5.721 1.226 8.273 1.773 2.022.433 3.57 2.066 3.891 4.109.952 6.047-37.849 6.015-37.07 0 .265-2.051 1.869-3.676 3.891-4.109 2.552-.547 6.002-1.286 8.273-1.773C28.012 52.212 29 50.989 29 49.575V46"/><path d="M24 53.209C25.397 55.159 28.017 57 32.928 57c4.875 0 7.492-1.814 8.896-3.749M47 27.873V26c0-1.784-.34-3.533-.985-5.16M22 36c-2.208 0-4-1.792-4-4s1.792-4 4-4m22 8c2.208 0 4-1.792 4-4s-1.792-4-4-4m-22 .096V35.5c0 2.917 1.159 5.715 3.222 7.778C27.285 45.341 30.083 46.5 33 46.5c6.075 0 11-4.925 11-11v-10c-1.52-.241-3-1-9.008-1M28 31v2m10-2v2"/><path d="M43.844 12.842c-8.826 3.489-17.938 5.941-27.345 7.327-1.609 3.227-.39 6.009 1.111 8.479 10.762-1.803 19.219-4.682 29.378-8.479-.195-2.79-.428-5.225-3.144-7.327zm-.456.041C36.049-3.268 11.942-2.601 7 14"/><circle cx="6.5" cy="19.5" r="4.5"/><path d="M11 17c3.272-1.02 5.306-1.893 7-4-.524 2.79-.298 4.262 0 6m12 22c1.455.605 4.792.624 6 0"/></g></svg>