<svg viewBox="0 0 64 64" xmlns="http://www.w3.org/2000/svg" fill-rule="evenodd" clip-rule="evenodd" stroke-linecap="round" stroke-linejoin="round" stroke-miterlimit="1.5"><path fill="none" d="M0 0h64v64H0z"/><clipPath id="a"><path d="M0 0h64v64H0z"/></clipPath><g fill="none" stroke="#000" stroke-width="2" clip-path="url(#a)"><path d="M43 17.5s-3.901 1.65-8.271-.636c-4.633-2.425-5.727-6.364-5.727-6.364s-.441 2.011-3.235 4.664C23.87 16.965 21 16.5 21 16.5v8c0 2.917 1.159 5.715 3.222 7.778C26.285 34.341 29.083 35.5 32 35.5s5.715-1.159 7.778-3.222C41.841 30.215 43 27.417 43 24.5v-7z"/><path d="M36 35v3.575c0 1.414.988 2.637 2.371 2.933 2.271.487 5.721 1.226 8.273 1.773 2.022.433 3.569 2.066 3.891 4.109C51.398 52.854 53 63 53 63H11s1.602-10.146 2.465-15.61c.322-2.043 1.869-3.676 3.891-4.109 2.552-.547 6.002-1.286 8.273-1.773C27.012 41.212 28 39.989 28 38.575V35"/><path d="M23 42.209C24.397 44.159 27.017 46 31.928 46c4.875 0 7.492-1.814 8.896-3.749M20 63v-7m24 7v-7m-7.583-18s5.811-.549 8.821-.834c1.006-.095 1.783-.925 1.811-1.935.094-3.371.306-11.023.507-18.239.116-4.2-1.47-8.269-4.4-11.281C40.227 2.699 36.203 1 32.002 1h-.004c-4.201 0-8.225 1.699-11.154 4.711-2.93 3.012-4.516 7.081-4.4 11.281.201 7.215.413 14.867.507 18.238.028 1.01.806 1.841 1.812 1.936 3.025.284 8.882.834 8.882.834M19 43c-.309 10.644 9.765 10.064 13 3m12.993-3c.309 10.644-9.764 10.064-13 3M27 21v2m10-2v2m-8 7c1.455.605 4.792.624 6 0"/></g></svg>