<svg viewBox="0 0 64 64" xmlns="http://www.w3.org/2000/svg" fill-rule="evenodd" clip-rule="evenodd" stroke-linecap="round" stroke-linejoin="round" stroke-miterlimit="1.5"><path fill="none" d="M0 0h64v64H0z"/><g fill="none" stroke="#000" stroke-width="2"><path d="M25 7V1h14v6M17.208 24.792L20 22l4 4 4-4 4 4 4-4 4 4 4-4 2.93 2.93m-28.953 4.093L20 27l4 4 4-4 4 4 4-4 4 4 4-4 2.023 2.023"/><path d="M48 11l-9-4c-3.973 1.335-9.972 1.406-14 0l-9 4 1 15s.548 1.919 1.239 4.336c1.812 6.344 2.027 13.038.626 19.486C17.506 56.073 16 63 16 63h32s-1.506-6.927-2.865-13.178c-1.401-6.448-1.186-13.142.626-19.486C46.452 27.919 47 26 47 26l1-15z"/><path d="M16 11c-1.937 1.291-3.351 3.229-3.99 5.466C9.136 26.524 1 55 1 55l5 2 11-31m31-15c1.937 1.291 3.351 3.229 3.99 5.466C54.864 26.524 63 55 63 55l-5 2-11-31m-1 31H27m-4 0h-5"/></g></svg>