<svg viewBox="0 0 64 64" xmlns="http://www.w3.org/2000/svg" fill-rule="evenodd" clip-rule="evenodd" stroke-linecap="round" stroke-linejoin="round" stroke-miterlimit="1.5"><path fill="none" d="M0 0h64v64H0z"/><g fill="none" stroke="#000" stroke-width="2"><path d="M25 7V1h14v6M16 44l4-4 4 4 4-4 4 4 4-4 4 4 4-4 4 4m-32 5l4-4 4 4 4-4 4 4 4-4 4 4 4-4 4 4M16 24l4-4 4 4 4-4 4 4 4-4 4 4 4-4 4 4m-32 5l4-4 4 4 4-4 4 4 4-4 4 4 4-4 4 4"/><path d="M49 11L39 7c-3.973 1.335-9.972 1.406-14 0l-10 4v20l1 32h32l1-32V11zm0 0h.001c3.118 1.248 5.396 3.986 6.055 7.28C57.433 30.167 63 58 63 58l-7 2-7-29M15 11h-.001c-3.118 1.248-5.396 3.986-6.055 7.28C6.567 30.167 1 58 1 58l7 2 7-29m33 26H26m-4 0h-6"/></g></svg>