<svg viewBox="0 0 64 64" xmlns="http://www.w3.org/2000/svg" fill-rule="evenodd" clip-rule="evenodd" stroke-linecap="round" stroke-linejoin="round" stroke-miterlimit="1.5"><path fill="none" d="M0 0h64v64H0z"/><clipPath id="a"><path d="M0 0h64v64H0z"/></clipPath><g fill="none" stroke="#000" stroke-width="2" clip-path="url(#a)"><path d="M47 27V17c0-4.243-1.686-8.313-4.686-11.314C39.313 2.686 35.243 1 31 1s-8.313 1.686-11.314 4.686C16.686 8.687 15 12.757 15 17v10"/><path d="M42 27V17c0-2.917-1.159-5.715-3.222-7.778C36.715 7.159 33.917 6 31 6c-6.075 0-11 4.925-11 11v10m7.642 18.971C26.048 44.892 25 43.068 25 41c0-3.311 2.689-6 6-6s6 2.689 6 6c0 2.068-1.048 3.892-2.642 4.971L36 55H26l1.642-9.029z"/><path d="M51 27H11v31c0 1.326.527 2.598 1.464 3.536C13.402 62.473 14.674 63 16 63h30c1.326 0 2.598-.527 3.536-1.464C50.473 60.598 51 59.326 51 58V27zM16 38v8m0-14v2"/></g></svg>