<svg viewBox="0 0 64 64" xmlns="http://www.w3.org/2000/svg" fill-rule="evenodd" clip-rule="evenodd" stroke-linecap="round" stroke-linejoin="round" stroke-miterlimit="1.5"><path fill="none" d="M0 0h64v64H0z"/><g fill="none" stroke="#000" stroke-width="2"><path d="M45.45 48.01c3.371 1.372 7.066 2.742 9.194 4.271 1.68 1.206 1.57 4.066 1.891 6.109.952 6.047-44.849 6.015-44.07 0 .265-2.051 1.098-5.079 2.891-6.109 2.552-1.466 5.878-2.784 8.96-4.098M49 27.873V26c0-1.726-.319-3.419-.923-5M23 36c-2.208 0-4-1.792-4-4s1.792-4 4-4m24 8c2.208 0 4-1.792 4-4s-1.792-4-4-4m-23.824-.038C22.625 29.871 22 32.661 22 35.5"/><path d="M48 35.5c0-5.078-2-10-2-10-1.52-.241-3-1-9.008-1M30 31v2m10-2v2"/><path d="M45.844 12.842c-8.826 3.489-17.938 5.941-27.345 7.327-1.609 3.227-.39 6.009 1.111 8.479 10.762-1.803 19.219-4.682 29.378-8.479-.195-2.79-.428-5.225-3.144-7.327zm-.456.041C38.049-3.268 13.942-2.601 9 14"/><circle cx="8.5" cy="19.5" r="4.5"/><path d="M13 17c3.272-1.02 5.306-1.893 7-4-.524 2.79-.298 4.262 0 6m6.201 17.948c-1.087-.267-2.158-.582-3.201-.948.008.611.023 1.233.049 1.863m.242 3.293c.784 7.225 3.463 14.857 11.842 18.844 6.763-2.498 10.572-9.579 11.589-18.758m.239-3.221c.026-.665.039-1.339.039-2.021-1.044.409-2.146.757-3.292 1.044"/><path d="M29 36c3.572-1.473 6 1.344 6 3s-2.137 3-6 3-10.237-2.979-9-3c1.431-.024 4.973-1.339 9-3zm12 0c-3.572-1.473-6 1.344-6 3s2.137 3 6 3 10.237-2.979 9-3c-1.431-.024-4.973-1.339-9-3zm-9 8c1.455.605 4.792.624 6 0"/></g></svg>