<svg viewBox="0 0 64 64" xmlns="http://www.w3.org/2000/svg" fill-rule="evenodd" clip-rule="evenodd" stroke-linecap="round" stroke-linejoin="round" stroke-miterlimit="1.5"><path fill="none" d="M0 0h64v64H0z"/><g fill="none" stroke="#000" stroke-width="2"><path d="M14.214 6.154c-.422-.29-1.603 8.894-1.603 8.894s-8.173 10.029-8.417 17.27c2.468 1.637 2.151 4.121 15.648 6.643C25.403 40 37.323 47.12 44.696 49.511c6.926 2.246 8.978 2.233 16.291 2.569 0 0 .526-1.798 1.151-3.931 1.099-3.753-.676-7.75-4.196-9.451C42.801 31.595 38.792 19.143 37.2 8.306c-5.756 1.873-14.505-1.319-22.986-2.152z"/><path d="M3.273 31.928L1.32 36.53c5.14 5.337 13.384 7.273 18.41 7.815 1.482.16 6.675 2.721 8.284 3.516 14.079 6.956 22.526 9.705 31.94 9.213l1.953-4.603M31.425 9.114c.647 5.127.097 7.623-6.255 7.359m-4.014-.411c-2.04-.299-4.455-.756-7.307-1.372"/><path d="M10.194 20.743c10.118 4.698 11.477 10.003 10.408 17.986" stroke-dasharray="2,4,0,0"/><path d="M34.352 20.134l4.854-1.199m-3.126 7.364l6.166-1.728m-2.205 7.755l4.715-3.431m-.365 8.536l4.186-4.741"/></g></svg>