<svg viewBox="0 0 64 64" xmlns="http://www.w3.org/2000/svg" fill-rule="evenodd" clip-rule="evenodd" stroke-linecap="round" stroke-linejoin="round" stroke-miterlimit="1.5"><path fill="none" d="M0 0h64v64H0z"/><clipPath id="a"><path d="M0 0h64v64H0z"/></clipPath><g fill="none" stroke="#000" stroke-width="2" clip-path="url(#a)"><path d="M24.901 26.04C23.108 24.233 22 21.745 22 19c0-1.934.55-3.741 1.503-5.272M32 9c5.519 0 10 4.481 10 10 0 2.841-1.187 5.407-3.093 7.228m1.751 5.142C45.651 34.333 49 39.778 49 46c0 9.383-7.617 17-17 17s-17-7.617-17-17c0-6.31 3.445-11.821 8.555-14.755"/><path d="M41 26c-6.009 1.296-12.01 1.281-18 0-.587 1.637-.596 3.303 0 5 6.105 1.326 12.107 1.341 18 0 .683-1.599.635-3.27 0-5zm-7 6c1.356 1.231 2.37 2.609 3.154 4.055m1.301 2.98C39.163 41.061 39.587 43.113 40 45l4-1c-1.469-4.548-2.655-9.365-6-12m-9-16v1m6-1v1m-6 5c1.748 1.15 3.757 1.396 6 0M20 33l-8-7v-5m-4 5h4m32 7l8-7v-5m4 5h-4M32.815 7.928l-4-6.928-10.392 6 4 6.928M21 15l14-8M24 9l7-4"/><circle cx="32" cy="40.5" r="2.5"/><circle cx="32" cy="50.5" r="2.5"/></g></svg>