<svg viewBox="0 0 64 64" xmlns="http://www.w3.org/2000/svg" fill-rule="evenodd" clip-rule="evenodd" stroke-linecap="round" stroke-linejoin="round" stroke-miterlimit="1.5"><path fill="none" d="M0 0h64v64H0z"/><clipPath id="a"><path d="M0 0h64v64H0z"/></clipPath><g fill="none" stroke="#000" stroke-width="2" clip-path="url(#a)"><path d="M52 4c0-1.657-1.343-3-3-3H20c-1.657 0-3 1.343-3 3v8c0 1.657 1.343 3 3 3h29c1.657 0 3-1.343 3-3V4zm-3 11v21.35c0 2.357-.833 4.638-2.351 6.441-2.889 3.431-7.955 9.45-12.413 14.762-4.97 5.923-14.8 6.696-20.723 1.725-.001 0-.001 0-.002-.001-2.844-2.386-4.623-5.805-4.947-9.503-.323-3.698.835-7.374 3.222-10.218 0 0 5.524-6.584 7.512-8.953.453-.54.702-1.223.702-1.928V15M9.139 46.2c1.332.26 2.602.602 3.813 1.025m3.1 1.323c5.004 2.561 8.801 6.75 11.488 12.438M49 27c-7.927.023-11.91 12.648-5 19m5-26H37m-4 0h-2"/></g></svg>