<svg viewBox="0 0 64 64" xmlns="http://www.w3.org/2000/svg" fill-rule="evenodd" clip-rule="evenodd" stroke-linecap="round" stroke-linejoin="round" stroke-miterlimit="1.5"><path fill="none" d="M0 0h64v64H0z"/><clipPath id="a"><path d="M0 0h64v64H0z"/></clipPath><g fill="none" stroke="#000" stroke-width="2" clip-path="url(#a)"><path d="M59 20.23c0-1.899-1.336-3.536-3.196-3.918-15.707-3.132-31.57-3.121-47.589.017-1.867.374-3.21 2.013-3.21 3.917C5 26.101 5 38.346 5 44.009c0 1.774 1.168 3.335 2.869 3.837 3.202.944 8.34 2.458 11.447 3.374 1.7.501 3.526.339 5.11-.453 1.621-.81 3.726-1.863 5.298-2.649 1.408-.704 3.065-.704 4.473 0 1.574.787 3.68 1.841 5.302 2.651 1.582.791 3.405.954 5.102.456 3.123-.916 8.304-2.436 11.525-3.382C57.83 47.343 59 45.78 59 44.005V20.23z"/><path d="M54 22.777c0-.963-.687-1.79-1.633-1.966-13.434-2.46-27.009-2.452-40.725.007-.95.173-1.641 1-1.641 1.966C10 26.811 10 37.047 10 40.925c0 .899.6 1.687 1.466 1.928 2.134.591 6.131 1.699 8.767 2.43 1.665.462 3.442.291 4.989-.479 1.399-.696 3.15-1.568 4.518-2.249 1.403-.698 3.053-.698 4.456 0 1.369.682 3.122 1.555 4.522 2.251 1.544.769 3.318.94 4.98.482 2.652-.732 6.685-1.844 8.834-2.437.867-.239 1.468-1.028 1.468-1.928V22.777zM5 19c-2.209 0-4 1.791-4 4v17c0 2.209 1.791 4 4 4m54-25c2.209 0 4 1.791 4 4v17c0 2.209-1.791 4-4 4M49 24.865l-4.127 1.784m-4.717 2.04L15 39.568m34.156-9.879l-15.284 6.609"/></g></svg>