<svg viewBox="0 0 64 64" xmlns="http://www.w3.org/2000/svg" fill-rule="evenodd" clip-rule="evenodd" stroke-linecap="round" stroke-linejoin="round" stroke-miterlimit="1.5"><path fill="none" d="M0 0h64v64H0z"/><clipPath id="a"><path d="M0 0h64v64H0z"/></clipPath><g fill="none" stroke="#000" stroke-width="2" clip-path="url(#a)"><path d="M32 2v31l11-12"/><path d="M25.455 12.496s3.871-7.391 5.659-10.805c.173-.329.514-.536.886-.536s.713.207.886.536C35.5 6.682 43 21 43 21s13.956 2.29 19.114 3.136c.367.061.671.32.787.673.117.353.028.742-.231 1.01C58.667 29.953 47 42 47 42s3.062 14.103 4.283 19.726c.085.39-.071.794-.396 1.026-.326.232-.758.248-1.1.041C44.77 59.748 32 52 32 52s-12.967 7.868-17.902 10.862c-.334.203-.757.192-1.081-.028-.324-.221-.489-.61-.423-.996C13.546 56.293 16 42 16 42S5 29.932 1.241 25.808c-.247-.271-.325-.656-.205-1.002.12-.346.421-.599.783-.659C6.921 23.31 21 21 21 21l2.665-5.087M21 21l11 12m15 9l-15-9m-16 9l16-9m31-8l-31 8M2 25l31 8M13.633 62L32 33m18 29L31.633 33M32 52V34"/></g></svg>