<svg viewBox="0 0 64 64" xmlns="http://www.w3.org/2000/svg" fill-rule="evenodd" clip-rule="evenodd" stroke-linecap="round" stroke-linejoin="round" stroke-miterlimit="1.5"><path fill="none" d="M0 0h64v64H0z"/><clipPath id="a"><path d="M0 0h64v64H0z"/></clipPath><g fill="none" stroke="#000" stroke-width="2" clip-path="url(#a)"><path d="M50.01 57H63l-5-14H4v11c0 1.657 1.343 3 3 3h4M35 4c0-.796-.316-1.559-.879-2.121C33.559 1.316 32.796 1 32 1H4c-.796 0-1.559.316-2.121.879C1.316 2.441 1 3.204 1 4s.316 1.559.879 2.121C2.441 6.684 3.204 7 4 7h28c.796 0 1.559-.316 2.121-.879C34.684 5.559 35 4.796 35 4zm-2.991 22V7H3.991v21"/><path d="M58 42.571V32c0-3.314-2.686-6-6-6H32M4 28v19m46.01 10H63l-5-14H4v11c0 1.657 1.343 3 3 3h4m32-40h5v9h-5zm8-5H40l3 5h5l3-5z"/><path d="M26.463 58.29C25.355 61.049 22.654 63 19.5 63c-4.139 0-7.5-3.361-7.5-7.5 0-4.139 3.361-7.5 7.5-7.5 3.582 0 6.58 2.516 7.323 5.876m8.38-.113C35.987 50.46 38.959 48 42.5 48c4.139 0 7.5 3.361 7.5 7.5 0 4.139-3.361 7.5-7.5 7.5-3.224 0-5.975-2.038-7.035-4.896M9 12h18v14H9zm23 31V26"/><path d="M45 56c0-.53-.211-1.039-.586-1.414S43.53 54 43 54H19c-.53 0-1.039.211-1.414.586S17 55.47 17 56c0 .53.211 1.039.586 1.414S18.47 58 19 58h24c.53 0 1.039-.211 1.414-.586S45 56.53 45 56zM4 37h28M4 33h28"/></g></svg>