<svg viewBox="0 0 64 64" xmlns="http://www.w3.org/2000/svg" fill-rule="evenodd" clip-rule="evenodd" stroke-linecap="round" stroke-linejoin="round" stroke-miterlimit="1.5"><path fill="none" d="M0 0h64v64H0z"/><clipPath id="a"><path d="M0 0h64v64H0z"/></clipPath><g fill="none" stroke="#000" stroke-width="2" clip-path="url(#a)"><path d="M18.406 42.528c.872-2.238 3.049-3.827 5.594-3.827 3.311 0 6 2.689 6 6 0 1.006-.248 1.954-.686 2.786m-24.93-6.422c-.775-6.189 2.469-14.58 14.826-13.525 4.632.395 8.374-9.106 22.709-5.941m9.009 4.494c3.656 3.235 5.242 7.832 5.807 12.684"/><path d="M50.508 26.551c-.919.986-1.434 2.283-1.441 3.632.026 2.075-.749 4.191-2.31 5.864-3.157 3.386-8.341 3.689-11.57.678-3.23-3.011-3.288-8.204-.131-11.59 1.56-1.673 3.616-2.594 5.686-2.733 1.341-.101 2.594-.703 3.511-1.686.015.014.015.014.016.014 1.278-1.371 2.715-2.385 4.073-2.962.314-.133 4.911 4.313 4.785 4.66-.494 1.353-1.385 2.799-2.618 4.121 0 .001 0 .001-.001.002z"/><path d="M50.508 26.551c-.919.986-1.434 2.283-1.441 3.632.026 2.075-.749 4.191-2.31 5.864-3.157 3.386-8.341 3.689-11.57.678-3.23-3.011-3.288-8.204-.131-11.59 1.56-1.673 3.616-2.594 5.686-2.733 1.341-.101 2.594-.703 3.511-1.686.015.014.015.014.016.014 1.278-1.371 2.715-2.385 4.073-2.962.314-.133 4.911 4.313 4.785 4.66-.494 1.353-1.385 2.799-2.618 4.121 0 .001 0 .001-.001.002zm-.827-8.819s2.165-2.323 3.505-3.759c.663-.711 1.019-1.655.99-2.627-.009-.288-.018-.599-.027-.915-.048-1.616 1.214-2.97 2.83-3.035h.002c1.39-.056 2.607.927 2.844 2.298.075.427.148.851.211 1.214.115.66.523 1.233 1.11 1.556.145.08.299.164.457.251 1.154.635 1.657 2.027 1.177 3.252-.001 0-.001.001-.001.001-.568 1.449-2.198 2.168-3.651 1.611-.125-.048-.248-.095-.37-.142-1.054-.404-2.248-.129-3.018.697-1.135 1.217-2.618 2.807-2.618 2.807m-32.276 26.76c2.063-7.748-1.512-3.451-6.662-5.51m-4.062-1.325c-6.963-1.653-8.649 1.858-7.276 6.835m57.154 0c2.498-10.567-5.741-9.779-7.18-6.883-4.193 8.433-11.762-5.598-10.82 6.883"/><path d="M60 47.701c2.498-10.567-5.741-9.779-7.18-6.883-4.193 8.433-11.762-5.598-10.82 6.883m21 0H1c.314 3.422 1.537 7.171 4 9h54c2.584-1.872 3.701-5.676 4-9z"/></g></svg>