<svg viewBox="0 0 64 64" xmlns="http://www.w3.org/2000/svg" fill-rule="evenodd" clip-rule="evenodd" stroke-linecap="round" stroke-linejoin="round" stroke-miterlimit="1.5"><path fill="none" d="M0 0h64v64H0z"/><clipPath id="a"><path d="M0 0h64v64H0z"/></clipPath><g fill="none" stroke="#000" stroke-width="2" clip-path="url(#a)"><path d="M11 2c0-.265.105-.52.293-.707C11.48 1.105 11.735 1 12 1h10c.265 0 .52.105.707.293.188.187.293.442.293.707v4c0 .265-.105.52-.293.707C22.52 6.895 22.265 7 22 7c1.519 6.654 1.409 7.965 0 14 0 0 4.293 1.431 6.949 2.316 1.225.409 2.051 1.555 2.051 2.846V61c0 .53-.211 1.039-.586 1.414S29.53 63 29 63H5c-.53 0-1.039-.211-1.414-.586S3 61.53 3 61V26.162c0-1.291.826-2.437 2.051-2.846C7.707 22.431 12 21 12 21c-1.416-6.446-1.525-7.788 0-14-.265 0-.52-.105-.707-.293C11.105 6.52 11 6.265 11 6V2zm50 33H38c-.311 9.342.135 18.674 1 28h21c.875-9.27 1.325-18.589 1-28zM3 30h28M3 57h28M19 7h3M12 7h2m9 7H11"/><path d="M39 56l1.536 1.536c.937.937 2.209 1.464 3.535 1.464h10.858c1.326 0 2.598-.527 3.535-1.464L60 56M38 41h5m4 0h13"/><path d="M49.755 50.731l-5.638-2.052-2.052 5.638 5.638 2.052 2.052-5.638zm9.171-5.792L53 44l-.939 5.926 5.927.939.938-5.926zM7 41.01V53h20V34H7v3.956"/><ellipse cx="17" cy="40.5" rx="6" ry="2.5"/><path d="M11 49h12"/></g></svg>