<svg viewBox="0 0 64 64" xmlns="http://www.w3.org/2000/svg" fill-rule="evenodd" clip-rule="evenodd" stroke-linecap="round" stroke-linejoin="round" stroke-miterlimit="1.5"><path fill="none" d="M0 0h64v64H0z"/><clipPath id="a"><path d="M0 0h64v64H0z"/></clipPath><g clip-path="url(#a)"><path d="M15.116 37.977l.115.004.115.008.114.01.113.013.112.015.111.019.11.021.11.024.108.026.107.029.107.032.105.034.104.037.102.039.102.041.1.044.099.047.098.048.096.051.095.053.094.055.092.058.09.06.089.061.088.064.086.066.084.068.082.069.081.072.079.074.077.075.076.077.073.08.072.08.07.083.068.084.066.086.063.087.062.089.06.091.057.092.055.093.054.095.05.097.049.097.046.099.044.101.042.101.039.103.036.104.035.105.031.106.029.108.027.108.024.109.021.11.018.112.016.112.013.113.01.114.007.114.005.116.001.116-.001.116-.005.115-.007.115-.01.113-.013.113-.016.113-.018.111-.021.11-.024.109-.027.109-.029.107-.031.106-.035.105-.036.104-.039.103-.042.101-.044.101-.046.099-.049.097-.05.097-.054.095-.055.093-.057.092-.06.091-.062.089-.063.087-.066.086-.068.084-.07.083-.072.081-.073.079-.076.077-.077.075-.079.074-.081.072-.082.069-.084.068-.086.066-.088.064-.089.062-.09.059-.092.058-.094.055-.095.053-.096.051-.098.049-.099.046-.1.044-.102.041-.102.039-.104.037-.105.034-.107.032-.107.029-.108.026-.11.024-.11.021-.111.019-.112.015-.113.013-.114.01-.115.008-.115.004-.116.002-.116-.002-.115-.004-.115-.008-.114-.01-.113-.013-.112-.015-.111-.019-.11-.021-.11-.024-.108-.026-.107-.029-.107-.032-.105-.034-.104-.037-.102-.039-.102-.041-.1-.044-.099-.046-.098-.049-.096-.051-.095-.053-.094-.055-.092-.058-.09-.059-.089-.062-.088-.064-.086-.066-.084-.068-.082-.069-.081-.072-.079-.074-.077-.075-.076-.077-.073-.079-.072-.081-.07-.083-.068-.084-.066-.086-.063-.087-.062-.089-.06-.091-.057-.092-.055-.093-.054-.095-.05-.097-.049-.097-.046-.099-.044-.101-.042-.101-.039-.103-.036-.104-.035-.105-.031-.106-.029-.107-.027-.109-.024-.109-.021-.11-.018-.111-.016-.113-.013-.113-.01-.113-.007-.115-.005-.115-.001-.116.001-.116.005-.116.007-.114.01-.114.013-.113.016-.112.018-.112.021-.11.024-.109.027-.108.029-.108.031-.106.035-.105.036-.104.039-.103.042-.101.044-.101.046-.099.049-.097.05-.097.054-.095.055-.093.057-.092.06-.091.062-.089.063-.087.066-.086.068-.084.07-.083.072-.08.073-.08.076-.077.077-.075.079-.074.081-.072.082-.069.084-.068.086-.066.088-.064.089-.061.09-.06.092-.058.094-.055.095-.053.096-.051.098-.048.099-.047.1-.044.102-.041.102-.039.104-.037.105-.034.107-.032.107-.029.108-.026.11-.024.11-.021.111-.019.112-.015.113-.013.114-.01.115-.008.115-.004.116-.001.116.001zm-.181 2l-.065.002-.064.004-.064.006-.062.007-.062.009-.062.01-.061.012-.06.013-.06.014-.059.016-.059.018-.058.019-.057.02-.057.021-.056.023-.056.025-.055.025-.054.027-.053.028-.053.03-.052.031-.051.032-.05.033-.05.034-.049.036-.047.036-.047.038-.047.039-.045.04-.044.041-.043.043-.042.043-.041.044-.04.045-.039.046-.038.047-.037.048-.035.049-.035.049-.033.051-.032.051-.031.052-.029.053-.028.053-.027.054-.026.055-.024.055-.023.056-.022.057-.02.058-.019.058-.017.058-.016.059-.015.06-.013.061-.012.06-.01.062-.009.062-.007.063-.005.064-.005.064-.002.064-.001.066.001.065.002.065.005.064.005.063.007.063.009.062.01.062.012.061.013.06.015.06.016.059.017.059.019.058.02.057.022.057.023.056.024.055.026.055.027.054.028.054.029.052.031.052.032.052.033.05.035.049.035.049.037.048.038.047.039.046.04.045.041.044.042.044.043.042.044.041.045.04.047.039.047.038.047.036.049.036.05.034.05.034.051.032.052.03.053.03.053.028.054.027.055.025.056.025.056.023.057.021.057.021.058.018.059.018.059.016.06.014.06.014.061.011.062.011.062.008.062.007.064.006.064.004.065.003h.13l.065-.003.064-.004.063-.006.063-.007.063-.008.061-.011.061-.011.06-.014.06-.014.059-.016.059-.018.058-.018.057-.021.057-.021.056-.023.056-.025.055-.025.054-.027.053-.028.053-.03.052-.03.051-.032.05-.034.05-.034.049-.035.048-.037.046-.038.047-.039.045-.04.044-.041.043-.042.042-.044.041-.044.04-.045.039-.046.038-.047.037-.048.035-.048.035-.05.033-.051.032-.051.031-.052.029-.052.028-.054.027-.054.026-.055.024-.055.023-.056.022-.057.02-.057.019-.058.017-.059.016-.059.015-.06.013-.06.012-.061.01-.062.009-.062.007-.063.005-.063.005-.064.002-.065.001-.065-.001-.066-.002-.064-.005-.065-.005-.063-.007-.063-.009-.062-.01-.061-.012-.061-.013-.061-.015-.06-.016-.059-.017-.058-.019-.058-.02-.058-.022-.057-.023-.056-.024-.055-.026-.055-.027-.054-.028-.054-.029-.052-.031-.052-.032-.051-.033-.051-.035-.049-.035-.049-.037-.048-.038-.047-.039-.046-.04-.045-.041-.044-.042-.043-.043-.043-.044-.041-.045-.04-.047-.039-.046-.038-.048-.036-.049-.036-.05-.034-.05-.033-.051-.032-.052-.031-.053-.03-.053-.028-.054-.027-.055-.025-.056-.025-.056-.023-.057-.021-.057-.02-.058-.019-.059-.018-.059-.016-.06-.014-.06-.013-.061-.012-.061-.01-.063-.009-.063-.007-.063-.006-.064-.004-.065-.002-.065-.001-.065.001zm20.155-34l.09.003.089.006.089.008.088.01.087.012.086.014.086.017.085.018.084.021.084.022.082.025.082.027.081.028.08.031.079.032.078.034.077.036.076.038.075.039.074.042.072.043.072.044.07.047.07.048.068.049.066.051.066.053.064.055.063.055.061.058.06.058.059.06.057.062.056.063.054.064.053.065.051.067.05.068.048.069.046.071.045.071.043.073.041.074.04.075.038.076.036.077.034.078.032.079.03.08.029.081.027.081.024.083.023.083.02.085.019.085.016.085.015.087.012.087.01.088.008.088.005.09.004.089.001.091-.001.09-.004.09-.005.089-.008.088-.01.088-.012.087-.015.087-.016.086-.019.085-.02.084-.023.083-.024.083-.027.082-.029.08-.03.08-.032.079-.034.078-.036.077-.038.076-.04.075-.041.074-.043.073-.045.071-.046.071-.048.069-.05.068-.051.067-.053.065-.054.065-.056.062-.057.062-.059.06-.06.059-.061.057-.063.056-.064.054-.066.053-.066.051-.068.049-.07.049-.07.046-.072.045-.072.043-.074.041-.075.039-.076.038-.077.036-.078.034-.079.033-.08.03-.081.029-.082.026-.082.025-.084.022-.084.021-.085.018-.086.017-.086.014-.087.012-.088.011-.089.007-.089.006-.09.003-.09.002-.09-.002-.09-.003-.089-.006-.089-.007-.088-.011-.087-.012-.086-.014-.086-.017-.085-.018-.084-.021-.084-.022-.082-.025-.082-.026-.081-.029-.08-.03-.079-.033-.078-.034-.077-.036-.076-.038-.075-.039-.074-.041-.072-.043-.072-.045-.07-.046-.07-.049-.068-.049-.066-.051-.066-.053-.064-.054-.063-.056-.061-.057-.06-.059-.059-.06-.057-.062-.056-.062-.054-.065-.053-.065-.051-.067-.05-.068-.048-.069-.046-.071-.045-.071-.043-.073-.041-.074-.04-.075-.038-.076-.036-.077-.034-.078-.032-.079-.03-.08-.029-.08-.027-.082-.024-.083-.023-.083-.02-.084-.019-.085-.016-.086-.015-.087-.012-.087-.01-.088-.008-.088-.005-.089-.004-.09-.001-.09.001-.091.004-.089.005-.09.008-.088.01-.088.012-.087.015-.087.016-.085.019-.085.02-.085.023-.083.024-.083.027-.081.029-.081.03-.08.032-.079.034-.078.036-.077.038-.076.04-.075.041-.074.043-.073.045-.071.046-.071.048-.069.05-.068.051-.067.053-.065.054-.064.056-.063.057-.062.059-.06.06-.058.061-.058.063-.055.064-.055.066-.053.066-.051.068-.049.07-.048.07-.047.072-.044.072-.043.074-.042.075-.039.076-.038.077-.036.078-.034.079-.032.08-.031.081-.028.082-.027.082-.025.084-.022.084-.021.085-.018.086-.017.086-.014.087-.012.088-.01.089-.008.089-.006.09-.003.09-.001.09.001zm-.13 1.999l-.039.002-.038.002-.038.004-.038.004-.037.005-.037.006-.037.007-.036.008-.035.009-.036.009-.035.011-.034.011-.035.012-.034.013-.033.014-.033.014-.033.016-.033.016-.032.017-.031.017-.031.019-.031.019-.03.02-.03.021-.029.021-.029.022-.029.023-.027.023-.027.024-.027.025-.026.026-.025.026-.025.026-.024.027-.024.028-.023.028-.022.029-.021.029-.021.03-.02.03-.019.031-.018.031-.018.032-.017.032-.016.032-.015.033-.015.033-.014.034-.012.034-.013.034-.011.035-.01.035-.01.035-.009.036-.007.036-.007.036-.006.037-.006.038-.004.037-.003.038-.003.039-.001.039-.001.04.001.039.001.039.003.039.003.038.004.038.006.037.006.037.007.036.007.036.009.036.01.035.01.035.011.035.013.034.012.034.014.034.015.033.015.033.016.032.017.032.018.032.018.031.019.031.02.03.021.03.021.029.022.029.023.028.024.028.024.027.025.027.025.026.026.025.027.025.027.024.027.023.029.023.029.022.029.022.03.02.03.02.031.019.031.019.031.018.032.016.033.017.033.015.033.014.033.014.034.013.035.012.034.011.035.011.036.009.035.009.036.008.037.007.037.006.037.005.038.005.038.003.038.002.039.002h.08l.039-.002.038-.002.038-.003.038-.005.037-.005.037-.006.037-.007.036-.008.035-.009.036-.009.035-.011.034-.011.035-.012.034-.013.033-.014.033-.014.033-.015.033-.017.032-.016.031-.018.031-.019.031-.019.03-.02.03-.02.03-.022.028-.022.029-.023.027-.023.027-.024.027-.025.026-.025.025-.026.025-.027.024-.027.024-.028.023-.028.022-.029.021-.029.021-.03.02-.03.019-.031.018-.031.018-.032.017-.032.016-.032.015-.033.015-.033.014-.034.012-.034.013-.034.011-.035.01-.035.01-.035.009-.036.007-.036.007-.036.006-.037.006-.037.004-.038.003-.038.003-.039.001-.039.001-.039-.001-.04-.001-.039-.003-.039-.003-.038-.004-.037-.006-.038-.006-.037-.007-.036-.007-.036-.009-.036-.01-.035-.01-.035-.011-.035-.013-.034-.012-.034-.014-.034-.015-.033-.015-.033-.016-.032-.017-.032-.018-.032-.018-.031-.019-.031-.02-.03-.021-.03-.021-.029-.022-.029-.023-.028-.024-.028-.024-.027-.025-.027-.025-.025-.026-.026-.027-.025-.027-.024-.027-.023-.029-.023-.028-.022-.03-.021-.03-.021-.03-.02-.031-.019-.031-.019-.031-.017-.032-.017-.033-.016-.033-.016-.033-.014-.033-.014-.034-.013-.035-.012-.034-.011-.035-.011-.036-.009-.035-.009-.036-.008-.037-.007-.037-.006-.037-.005-.038-.004-.038-.004-.038-.002-.039-.002h-.08zm10.156 31.001l.115.004.115.008.114.01.113.013.112.015.111.019.11.021.11.024.108.026.107.029.107.032.105.034.104.037.102.039.102.041.1.044.099.047.098.048.096.051.095.053.094.055.092.058.09.06.089.061.088.064.086.066.084.068.082.069.081.072.079.074.077.075.076.077.073.08.072.08.07.083.068.084.066.086.063.087.062.089.06.091.057.092.055.093.054.095.05.097.049.097.046.099.044.101.042.101.039.103.036.104.035.105.031.106.029.108.027.108.024.109.021.11.018.112.016.112.013.113.01.114.007.114.005.116.001.116-.001.116-.005.115-.007.115-.01.113-.013.113-.016.113-.018.111-.021.11-.024.109-.027.109-.029.107-.031.106-.035.105-.036.104-.039.103-.042.101-.044.101-.046.099-.049.097-.05.097-.054.095-.055.093-.057.092-.06.091-.062.089-.063.087-.066.086-.068.084-.07.083-.072.081-.073.079-.076.077-.077.075-.079.074-.081.072-.082.069-.084.068-.086.066-.088.064-.089.062-.09.059-.092.058-.094.055-.095.053-.096.051-.098.049-.099.046-.1.044-.102.041-.102.039-.104.037-.105.034-.107.032-.107.029-.108.026-.11.024-.11.021-.111.019-.112.015-.113.013-.114.01-.115.008-.115.004-.116.002-.116-.002-.115-.004-.115-.008-.114-.01-.113-.013-.112-.015-.111-.019-.11-.021-.11-.024-.108-.026-.107-.029-.107-.032-.105-.034-.104-.037-.102-.039-.102-.041-.1-.044-.099-.046-.098-.049-.096-.051-.095-.053-.094-.055-.092-.058-.09-.059-.089-.062-.088-.064-.086-.066-.084-.068-.082-.069-.081-.072-.079-.074-.077-.075-.076-.077-.073-.079-.072-.081-.07-.083-.068-.084-.066-.086-.063-.087-.062-.089-.06-.091-.057-.092-.055-.093-.054-.095-.05-.097-.049-.097-.046-.099-.044-.101-.042-.101-.039-.103-.036-.104-.035-.105-.031-.106-.029-.107-.027-.109-.024-.109-.021-.11-.018-.111-.016-.113-.013-.113-.01-.113-.007-.115-.005-.115-.001-.116.001-.116.005-.116.007-.114.01-.114.013-.113.016-.112.018-.112.021-.11.024-.109.027-.108.029-.108.031-.106.035-.105.036-.104.039-.103.042-.101.044-.101.046-.099.049-.097.05-.097.054-.095.055-.093.057-.092.06-.091.062-.089.063-.087.066-.086.068-.084.07-.083.072-.08.073-.08.076-.077.077-.075.079-.074.081-.072.082-.069.084-.068.086-.066.088-.064.089-.061.09-.06.092-.058.094-.055.095-.053.096-.051.098-.048.099-.047.1-.044.102-.041.102-.039.104-.037.105-.034.107-.032.107-.029.108-.026.11-.024.11-.021.111-.019.112-.015.113-.013.114-.01.115-.008.115-.004.116-.001.116.001zm-.181 2l-.065.002-.064.004-.064.006-.062.007-.062.009-.062.01-.061.012-.06.013-.06.014-.059.016-.059.018-.058.019-.057.02-.057.021-.056.023-.056.025-.055.025-.054.027-.053.028-.053.03-.052.031-.051.032-.05.033-.05.034-.049.036-.047.036-.047.038-.047.039-.045.04-.044.041-.043.042-.042.044-.041.044-.04.045-.039.046-.038.047-.037.048-.035.049-.035.049-.033.051-.032.051-.031.052-.029.053-.028.053-.027.054-.026.055-.024.055-.023.056-.022.057-.02.058-.019.058-.017.058-.016.059-.015.06-.013.06-.012.061-.01.062-.009.062-.007.063-.005.064-.005.064-.002.064-.001.066.001.065.002.065.005.064.005.063.007.063.009.062.01.062.012.061.013.06.015.06.016.059.017.059.019.058.02.057.022.057.023.056.024.055.026.055.027.054.028.054.029.052.031.052.032.052.033.05.035.049.035.049.037.048.038.047.039.046.04.045.041.044.042.044.043.042.044.041.045.04.047.039.047.038.047.037.049.035.05.034.05.034.051.032.052.03.053.03.053.028.054.027.055.025.056.025.056.023.057.021.057.021.058.018.059.018.059.016.06.014.06.014.061.011.061.011.063.008.063.007.063.006.064.004.065.003h.13l.065-.003.064-.004.063-.006.063-.007.063-.008.061-.011.061-.011.06-.014.06-.014.059-.016.059-.018.058-.018.057-.021.057-.021.056-.023.056-.025.055-.025.054-.027.053-.028.053-.03.052-.03.051-.032.05-.034.05-.034.049-.035.047-.037.048-.038.046-.039.045-.04.044-.041.043-.042.042-.044.041-.044.04-.045.039-.046.038-.047.037-.048.035-.049.035-.049.033-.051.032-.051.031-.052.029-.052.028-.054.027-.054.026-.055.024-.055.023-.056.022-.057.02-.057.019-.058.017-.059.016-.059.015-.06.013-.06.012-.061.01-.062.009-.062.007-.063.005-.063.005-.064.002-.065.001-.065-.001-.066-.002-.064-.005-.064-.005-.064-.007-.063-.009-.062-.01-.062-.012-.06-.013-.061-.015-.06-.016-.059-.017-.058-.019-.058-.02-.058-.022-.057-.023-.056-.024-.055-.026-.055-.027-.054-.028-.054-.029-.052-.031-.052-.032-.051-.033-.051-.035-.049-.035-.049-.037-.048-.038-.047-.039-.046-.04-.045-.041-.044-.042-.043-.043-.043-.044-.041-.045-.04-.046-.039-.048-.038-.047-.036-.049-.036-.05-.034-.05-.033-.051-.032-.052-.031-.053-.03-.053-.028-.054-.027-.055-.025-.056-.025-.056-.023-.057-.021-.057-.02-.058-.019-.059-.018-.059-.016-.06-.014-.06-.013-.061-.012-.062-.01-.062-.009-.062-.007-.064-.006-.064-.004-.065-.002-.065-.001-.065.001zm10.155-16l.09.003.089.006.089.008.088.01.087.012.086.014.086.017.085.018.084.021.084.022.082.025.082.027.081.028.08.031.079.032.078.034.077.036.076.038.075.039.074.042.072.043.072.044.07.047.07.048.068.049.066.051.066.053.064.055.063.055.061.058.06.058.059.06.057.062.056.063.054.064.053.065.051.067.05.068.048.069.046.071.045.071.043.073.041.074.04.075.038.076.036.077.034.078.032.079.03.08.029.081.027.081.024.083.023.083.02.085.019.085.016.085.015.087.012.087.01.088.008.088.005.09.004.089.001.091-.001.09-.004.09-.005.089-.008.088-.01.088-.012.087-.015.087-.016.086-.019.085-.02.084-.023.083-.024.083-.027.082-.029.08-.03.08-.032.079-.034.078-.036.077-.038.076-.04.075-.041.074-.043.073-.045.071-.046.071-.048.069-.05.068-.051.067-.053.065-.054.065-.056.062-.057.062-.059.06-.06.059-.061.057-.063.056-.064.054-.066.053-.066.051-.068.049-.07.049-.07.046-.072.045-.072.043-.074.041-.075.039-.076.038-.077.036-.078.034-.079.033-.08.03-.081.029-.082.026-.082.025-.084.022-.084.021-.085.018-.086.017-.086.014-.087.012-.088.011-.089.007-.089.006-.09.003-.09.002-.09-.002-.09-.003-.089-.006-.089-.007-.088-.011-.087-.012-.086-.014-.086-.017-.085-.018-.084-.021-.084-.022-.082-.025-.082-.026-.081-.029-.08-.03-.079-.033-.078-.034-.077-.036-.076-.038-.075-.039-.074-.041-.072-.043-.072-.045-.07-.046-.07-.049-.068-.049-.066-.051-.066-.053-.064-.054-.063-.056-.061-.057-.06-.059-.059-.06-.057-.062-.056-.062-.054-.065-.053-.065-.051-.067-.05-.068-.048-.069-.046-.071-.045-.071-.043-.073-.041-.074-.04-.075-.038-.076-.036-.077-.034-.078-.032-.079-.03-.08-.029-.08-.027-.082-.024-.083-.023-.083-.02-.084-.019-.085-.016-.086-.015-.087-.012-.087-.01-.088-.008-.088-.005-.089-.004-.09-.001-.09.001-.091.004-.089.005-.09.008-.088.01-.088.012-.087.015-.087.016-.085.019-.085.02-.085.023-.083.024-.083.027-.081.029-.081.03-.08.032-.079.034-.078.036-.077.038-.076.04-.075.041-.074.043-.073.045-.071.046-.071.048-.069.05-.068.051-.067.053-.065.054-.064.056-.063.057-.062.059-.06.06-.058.061-.058.063-.055.064-.055.066-.053.066-.051.068-.049.07-.048.07-.047.072-.044.072-.043.074-.042.075-.039.076-.038.077-.036.078-.034.079-.032.08-.031.081-.028.082-.027.082-.025.084-.022.084-.021.085-.018.086-.017.086-.014.087-.012.088-.01.089-.008.089-.006.09-.003.09-.001.09.001zm-.13 1.999l-.039.002-.038.002-.038.004-.038.004-.037.005-.037.006-.037.007-.036.008-.035.009-.036.009-.035.011-.034.011-.035.012-.034.013-.033.014-.033.014-.033.016-.033.016-.032.017-.031.017-.031.019-.031.019-.03.02-.03.021-.03.021-.028.022-.029.023-.027.023-.027.024-.027.025-.026.026-.025.025-.025.027-.024.027-.024.028-.023.028-.022.029-.021.029-.021.03-.02.03-.019.031-.018.031-.018.032-.017.032-.016.032-.015.033-.015.033-.014.034-.012.034-.013.034-.011.035-.01.035-.01.035-.009.036-.007.036-.007.036-.006.037-.006.038-.004.037-.003.038-.003.039-.001.039-.001.04.001.039.001.039.003.039.003.038.004.038.006.037.006.037.007.036.007.036.009.036.01.035.01.035.011.035.013.034.012.034.014.034.015.033.015.033.016.032.017.032.018.032.018.031.019.031.02.03.021.03.021.029.022.029.023.028.024.028.024.027.025.027.025.026.026.025.027.025.027.024.027.023.029.023.028.022.03.022.03.02.03.02.031.019.031.019.031.018.032.016.033.017.033.015.033.014.033.014.034.013.035.012.034.011.035.011.036.009.035.009.036.008.037.007.037.006.037.005.038.005.038.003.038.002.039.002h.08l.039-.002.038-.002.038-.003.038-.005.037-.005.037-.006.037-.007.036-.008.035-.009.036-.009.035-.011.034-.011.035-.012.034-.013.033-.014.033-.014.033-.015.033-.017.032-.016.031-.018.031-.019.031-.019.03-.02.03-.02.029-.022.029-.022.029-.023.027-.023.028-.024.026-.025.026-.025.025-.026.025-.027.024-.027.024-.028.023-.028.022-.029.021-.029.021-.03.02-.03.019-.031.018-.031.018-.032.017-.032.016-.032.015-.033.015-.033.014-.034.012-.034.013-.034.011-.035.01-.035.01-.035.008-.036.008-.036.007-.036.006-.037.006-.037.004-.038.003-.038.003-.039.001-.039.001-.039-.001-.04-.001-.039-.003-.039-.003-.038-.004-.037-.006-.038-.006-.037-.007-.036-.008-.036-.008-.036-.01-.035-.01-.035-.011-.035-.013-.034-.012-.034-.014-.034-.015-.033-.015-.033-.016-.032-.017-.032-.018-.032-.018-.031-.019-.031-.02-.03-.021-.03-.021-.029-.022-.029-.023-.028-.024-.028-.024-.027-.025-.026-.025-.027-.026-.025-.026-.025-.028-.024-.027-.023-.029-.023-.029-.022-.029-.021-.03-.021-.03-.02-.031-.019-.031-.019-.031-.017-.032-.017-.033-.016-.033-.016-.033-.014-.033-.014-.034-.013-.035-.012-.034-.011-.035-.011-.036-.009-.035-.009-.036-.008-.037-.007-.037-.006-.037-.005-.038-.004-.038-.004-.038-.002-.039-.002h-.08zM31.09 48.977l.09.003.089.006.089.008.088.01.087.012.086.014.086.017.085.018.084.021.084.022.082.025.082.027.081.028.08.031.079.032.078.034.077.036.076.038.075.039.074.042.072.043.072.044.07.047.07.048.068.049.066.051.066.053.064.055.063.055.061.058.06.058.059.06.057.062.056.063.054.064.053.065.051.067.05.068.048.069.046.071.045.071.043.073.041.074.04.075.038.076.036.077.034.078.032.079.03.08.029.081.027.081.024.083.023.083.02.085.019.085.016.085.015.087.012.087.01.088.008.088.005.09.004.089.001.091-.001.09-.004.09-.005.089-.008.088-.01.088-.012.087-.015.087-.016.086-.019.085-.02.084-.023.083-.024.083-.027.082-.029.08-.03.08-.032.079-.034.078-.036.077-.038.076-.04.075-.041.074-.043.073-.045.071-.046.071-.048.069-.05.068-.051.067-.053.065-.054.065-.056.062-.057.062-.059.06-.06.059-.061.057-.063.056-.064.054-.066.053-.066.051-.068.049-.07.049-.07.046-.072.045-.072.043-.074.041-.075.039-.076.038-.077.036-.078.034-.079.033-.08.03-.081.029-.082.026-.082.025-.084.022-.084.021-.085.018-.086.017-.086.014-.087.012-.088.011-.089.007-.089.006-.09.003-.09.002-.09-.002-.09-.003-.089-.006-.089-.007-.088-.011-.087-.012-.086-.014-.086-.017-.085-.018-.084-.021-.084-.022-.082-.025-.082-.026-.081-.029-.08-.03-.079-.033-.078-.034-.077-.036-.076-.038-.075-.039-.074-.041-.072-.043-.072-.045-.07-.046-.07-.049-.068-.049-.066-.051-.066-.053-.064-.054-.063-.056-.061-.057-.06-.059-.059-.06-.057-.062-.056-.062-.054-.065-.053-.065-.051-.067-.05-.068-.048-.069-.046-.071-.045-.071-.043-.073-.041-.074-.04-.075-.038-.076-.036-.077-.034-.078-.032-.079-.03-.08-.029-.08-.027-.082-.024-.083-.023-.083-.02-.084-.019-.085-.016-.086-.015-.087-.012-.087-.01-.088-.008-.088-.005-.089-.004-.09-.001-.09.001-.091.004-.089.005-.09.008-.088.01-.088.012-.087.015-.087.016-.085.019-.085.02-.085.023-.083.024-.083.027-.081.029-.081.03-.08.032-.079.034-.078.036-.077.038-.076.04-.075.041-.074.043-.073.045-.071.046-.071.048-.069.05-.068.051-.067.053-.065.054-.064.056-.063.057-.062.059-.06.06-.058.061-.058.063-.055.064-.055.066-.053.066-.051.068-.049.07-.048.07-.047.072-.044.072-.043.074-.042.075-.039.076-.038.077-.036.078-.034.079-.032.08-.031.081-.028.082-.027.082-.025.084-.022.084-.021.085-.018.086-.017.086-.014.087-.012.088-.01.089-.008.089-.006.09-.003.09-.001.09.001zm-.13 1.999l-.039.002-.038.002-.038.004-.038.004-.037.005-.037.006-.037.007-.036.008-.036.009-.035.009-.035.011-.034.011-.035.012-.034.013-.033.014-.033.014-.033.016-.033.016-.032.017-.031.017-.031.019-.031.019-.03.02-.03.021-.029.021-.029.022-.029.023-.027.023-.027.024-.027.025-.026.025-.025.027-.025.026-.024.027-.024.028-.023.028-.022.029-.021.029-.021.03-.02.03-.019.031-.018.031-.018.032-.017.032-.016.032-.015.033-.015.033-.014.034-.012.034-.013.034-.011.035-.01.035-.01.035-.008.036-.008.036-.007.036-.006.037-.006.038-.004.037-.003.038-.003.039-.001.039-.001.04.001.039.001.039.003.039.003.038.004.038.006.037.006.037.007.036.008.036.008.036.01.035.01.035.011.035.013.034.012.034.014.034.015.033.015.033.016.032.017.032.018.032.018.031.019.031.02.03.021.03.021.029.022.029.023.028.024.028.024.027.025.027.025.026.026.025.027.025.027.024.027.023.029.023.029.022.029.022.03.02.03.02.031.019.031.019.031.018.032.016.033.017.033.015.033.014.033.014.034.013.035.012.034.011.035.011.035.009.036.009.036.008.037.007.037.006.037.005.038.005.038.003.038.002.039.002h.08l.039-.002.038-.002.038-.003.038-.005.037-.005.037-.006.037-.007.036-.008.035-.009.036-.009.035-.011.034-.011.035-.012.034-.013.033-.014.033-.014.033-.015.033-.017.032-.016.031-.018.031-.019.031-.019.03-.02.03-.02.029-.022.029-.022.029-.023.027-.023.027-.024.027-.025.026-.025.025-.026.025-.027.024-.027.024-.028.023-.028.022-.029.021-.029.021-.03.02-.03.019-.031.018-.031.018-.032.017-.032.016-.032.015-.033.015-.033.014-.034.012-.034.013-.034.011-.035.01-.035.01-.035.008-.036.008-.036.007-.036.006-.037.006-.037.004-.038.003-.038.003-.039.001-.039.001-.039-.001-.04-.001-.039-.003-.039-.003-.038-.004-.037-.006-.038-.006-.036-.007-.037-.008-.036-.008-.036-.01-.035-.01-.035-.011-.035-.013-.034-.012-.034-.014-.034-.015-.033-.015-.033-.016-.032-.017-.032-.018-.032-.018-.031-.019-.03-.02-.031-.021-.03-.021-.029-.022-.029-.023-.028-.024-.028-.024-.027-.025-.026-.025-.026-.026-.026-.027-.025-.027-.024-.027-.023-.029-.023-.029-.022-.029-.021-.03-.021-.03-.02-.031-.019-.031-.019-.031-.017-.032-.017-.033-.016-.033-.016-.033-.014-.033-.014-.034-.013-.035-.012-.034-.011-.035-.011-.036-.009-.035-.009-.036-.008-.037-.007-.037-.006-.037-.005-.038-.004-.038-.004-.038-.002-.039-.002h-.08zM11.09 25.977l.09.003.089.006.089.008.088.01.087.012.086.014.086.017.085.018.084.021.084.022.082.025.082.027.081.028.08.031.079.032.078.034.077.036.076.038.075.039.074.042.072.043.072.044.07.047.07.048.068.049.066.051.066.053.064.055.063.055.061.058.06.058.059.06.057.062.056.063.054.064.053.065.051.067.05.068.048.069.046.071.045.071.043.073.041.074.04.075.038.076.036.077.034.078.032.079.03.08.029.081.027.081.024.083.023.083.02.085.019.085.016.085.015.087.012.087.01.088.008.088.005.09.004.089.001.091-.001.09-.004.09-.005.089-.008.088-.01.088-.012.087-.015.087-.016.086-.019.085-.02.084-.023.083-.024.083-.027.082-.029.08-.03.08-.032.079-.034.078-.036.077-.038.076-.04.075-.041.074-.043.073-.045.071-.046.071-.048.069-.05.068-.051.067-.053.065-.054.065-.056.062-.057.062-.059.06-.06.059-.061.057-.063.056-.064.054-.066.053-.066.051-.068.049-.07.049-.07.046-.072.045-.072.043-.074.041-.075.039-.076.038-.077.036-.078.034-.079.033-.08.03-.081.029-.082.026-.082.025-.084.022-.084.021-.085.018-.086.017-.086.014-.087.012-.088.011-.089.007-.089.006-.09.003-.09.002-.09-.002-.09-.003-.089-.006-.089-.007-.088-.011-.087-.012-.086-.014-.086-.017-.085-.018-.084-.021-.084-.022-.082-.025-.082-.026-.081-.029-.08-.03-.079-.033-.078-.034-.077-.036-.076-.038-.075-.039-.074-.041-.072-.043-.072-.045-.07-.046-.07-.049-.068-.049-.066-.051-.066-.053-.064-.054-.063-.056-.061-.057-.06-.059-.059-.06-.057-.062-.056-.062-.054-.065-.053-.065-.051-.067-.05-.068-.048-.069-.046-.071-.045-.071-.043-.073-.041-.074-.04-.075-.038-.076-.036-.077-.034-.078-.032-.079-.03-.08-.029-.08-.027-.082-.024-.083-.023-.083-.02-.084-.019-.085-.016-.086-.015-.087-.012-.087-.01-.088-.008-.088-.005-.089-.004-.09-.001-.09.001-.091.004-.089.005-.09.008-.088.01-.088.012-.087.015-.087.016-.085.019-.085.02-.085.023-.083.024-.083.027-.081.029-.081.03-.08.032-.079.034-.078.036-.077.038-.076.04-.075.041-.074.043-.073.045-.071.046-.071.048-.069.05-.068.051-.067.053-.065.054-.064.056-.063.057-.062.059-.06.06-.058.061-.058.063-.055.064-.055.066-.053.066-.051.068-.049.07-.048.07-.047.072-.044.072-.043.074-.042.075-.039.076-.038.077-.036.078-.034.079-.032.08-.031.081-.028.082-.027.082-.025.084-.022.084-.021.085-.018.086-.017.086-.014.087-.012.088-.01.089-.008.089-.006.09-.003.09-.001.09.001zm-.13 1.999l-.039.002-.038.002-.038.004-.038.004-.037.005-.037.006-.037.007-.036.008-.035.009-.036.009-.035.011-.034.011-.035.012-.034.013-.033.014-.033.014-.033.016-.033.016-.032.017-.031.017-.031.019-.031.019-.03.02-.03.021-.03.021-.028.022-.029.023-.027.023-.027.024-.027.025-.026.026-.025.025-.025.027-.024.027-.024.028-.023.028-.022.029-.021.029-.021.03-.02.03-.019.031-.018.031-.018.032-.017.032-.016.032-.015.033-.015.033-.014.034-.012.034-.013.034-.011.035-.01.035-.01.035-.009.036-.007.036-.007.036-.006.037-.006.038-.004.037-.003.038-.003.039-.001.039-.001.04.001.039.001.039.003.039.003.038.004.038.006.037.006.037.007.036.007.036.009.036.01.035.01.035.011.035.013.034.012.034.014.034.015.033.015.033.016.032.017.032.018.032.018.031.019.031.02.03.021.03.021.029.022.029.023.028.024.028.024.027.025.027.025.026.026.025.027.025.027.024.027.023.029.023.028.022.03.022.03.02.03.02.031.019.031.019.031.018.032.016.033.017.033.015.033.014.033.014.034.013.035.012.034.011.035.011.036.009.035.009.036.008.037.007.037.006.037.005.038.005.038.003.038.002.039.002h.08l.039-.002.038-.002.038-.003.038-.005.037-.005.037-.006.037-.007.036-.008.035-.009.036-.009.035-.011.034-.011.035-.012.034-.013.033-.014.033-.014.033-.015.033-.017.032-.016.031-.018.031-.019.031-.019.03-.02.03-.02.029-.022.029-.022.029-.023.027-.023.027-.024.027-.025.026-.025.025-.026.025-.027.024-.027.024-.028.023-.028.022-.029.021-.029.021-.03.02-.03.019-.031.018-.031.018-.032.017-.032.016-.032.015-.033.015-.033.014-.034.012-.034.013-.034.011-.035.01-.035.01-.035.009-.036.007-.036.007-.036.006-.037.006-.037.004-.038.003-.038.003-.039.001-.039.001-.039-.001-.04-.001-.039-.003-.039-.003-.038-.004-.037-.006-.038-.006-.037-.007-.036-.007-.036-.009-.036-.01-.035-.01-.035-.011-.035-.013-.034-.012-.034-.014-.034-.015-.033-.015-.033-.016-.032-.017-.032-.018-.032-.018-.031-.019-.031-.02-.03-.021-.03-.021-.029-.022-.029-.023-.028-.024-.028-.024-.027-.025-.026-.025-.026-.026-.026-.027-.025-.027-.024-.027-.023-.029-.023-.029-.022-.029-.021-.03-.021-.03-.02-.031-.019-.031-.019-.031-.017-.032-.017-.033-.016-.033-.016-.033-.014-.033-.014-.034-.013-.035-.012-.034-.011-.035-.011-.036-.009-.035-.009-.036-.008-.037-.007-.037-.006-.037-.005-.038-.004-.038-.004-.038-.002-.039-.002h-.08z"/><path d="M7.598 14c1.443-4.076 5.334-7 9.902-7 1.642 0 3.196.378 4.581 1.051C23.509 3.948 27.413 1 32 1c4.587 0 8.491 2.948 9.919 7.051C43.304 7.378 44.858 7 46.5 7 52.295 7 57 11.705 57 17.5c0 1.474-.304 2.878-.854 4.151 4 1.484 6.854 5.336 6.854 9.849 0 4.668-3.053 8.629-7.27 9.993.81 1.489 1.27 3.194 1.27 5.007C57 52.295 52.295 57 46.5 57c-1.642 0-3.196-.378-4.581-1.051C40.491 60.052 36.587 63 32 63c-4.587 0-8.491-2.948-9.919-7.051C20.696 56.622 19.142 57 17.5 57 11.705 57 7 52.295 7 46.5c0-1.813.46-3.518 1.27-5.007C4.053 40.129 1 36.168 1 31.5c0-4.513 2.854-8.365 6.854-9.849C7.304 20.378 7 18.974 7 17.5" fill="none" stroke="#000" stroke-width="2"/><path d="M30 17.067c-3.415-2.551-6.845-3.925-10.291-4.057-1.296-.013-2.45.819-2.846 2.054-1.136 3.705-1.146 7.587-.043 11.64.388 1.392 1.719 2.303 3.156 2.161 3.586-.403 6.923-1.699 10.024-3.843m4-7.955c3.741-2.608 7.498-3.985 11.274-4.063 1.261.003 2.382.804 2.794 1.995 1.232 3.751 1.242 7.678.031 11.781-.404 1.341-1.691 2.218-3.087 2.103-3.946-.361-7.612-1.667-11.012-3.861" fill="none" stroke="#000" stroke-width="2"/><circle cx="32" cy="21" r="4" fill="none" stroke="#000" stroke-width="2"/><path d="M40.792 28.398c.456 1.111.708 2.327.708 3.602 0 .826-.106 1.628-.304 2.392m-1.376 3.001C38.105 39.873 35.241 41.5 32 41.5c-1.475 0-2.871-.337-4.117-.937C24.699 39.028 22.5 35.769 22.5 32c0-1.213.228-2.374.643-3.441" fill="none" stroke="#000" stroke-width="2"/></g></svg>